<?xml version="1.0" standalone="no"?>
<!DOCTYPE svg PUBLIC "-//W3C//DTD SVG 1.1//EN" "http://www.w3.org/Graphics/SVG/1.1/DTD/svg11.dtd">
<svg xmlns="http://www.w3.org/2000/svg">
  <defs>
    <font id="Fraunces" horiz-adv-x="1187">
      <font-face font-family="Fraunces ExtraBold" units-per-em="2000" panose-1="0 0 0 0 0 0 0 0 0 0" ascent="1956" descent="-510" alphabetic="0"/>
      <glyph unicode=" " glyph-name="gid1" horiz-adv-x="414"/>
      <glyph unicode="!" glyph-name="gid63" horiz-adv-x="676" d="M338,1501q121,0 177.5-55T572,1300q0-28-5-61.5T552,1166L416,587q-11-45-28.5-66.5T338,499t-49,21.5T259,587L124,1166q-10,40-15,73t-5,61q0,91 57.5,146T338,1501ZM337-28Q275-28 225,3.5T145.5,87T116,200q0,62 29.5,113T225,395t112,31q63,0 113.5-31t80-82T560,200q0-61-29.5-113t-80-83.5T337-28Z"/>
      <glyph unicode="&quot;" glyph-name="gid114" horiz-adv-x="858" d="M640,803q-28,0-50,20.5T560,884l-77,426q-24,126 18.5,193.5T652,1571t148-69.5T814,1311L728,882q-9-41-31.5-60T640,803Zm-440,0q-28,0-50,20.5T120,884L43,1310q-24,126 18.5,193.5T212,1571t148-69.5T374,1311L288,882q-9-41-31.5-60T200,803Z"/>
      <glyph unicode="#" glyph-name="gid129" horiz-adv-x="1357" d="M530,687q-10-38-23.5-90t-28-111t-30-120T418,246T390,135T367,44Q346-22 281-7q-33,9-44.5,30.5T234,77q10,36 25.5,85.5T294,270t39,118.5t39,119t35,111T434,711q11,39 23.5,92T483,916t26.5,122T536,1159.5t25,110t21,86.5q21,65 86,51q33-9 44.5-31t2.5-54q-10-38-24.5-88t-32-108.5t-36-119T587,887T555.5,777T530,687ZM719,984q41,0 95.5,1.5t115,4.5t120,6t111.5,5t89,3q35,0 55.5-16t21.5-46q-1-32-21.5-48.5T1249,876q-37,0-89.5,2t-112,4.5t-120,5t-114.5,4T718,893q-41-1-96-2t-116.5-3T383,884.5t-114.5-2T176,882q-35-1-55.5,15T100,944q0,33 20.5,48.5T176,1008q38,0 91-2t114-6t123-8t118-6.5t97-1.5ZM649,446q-41,0-96-1.5t-116.5-3t-122.5-3T199.5,436T107,435q-35,0-55,16T31,498q0,33 20.5,48T107,561q38,0 91-2t114-6t122.5-8t118-6t97.5-2t95.5,1.5t115,4.5t120,6t111.5,5t89,3q35,0 55.5-16t21.5-46q-1-32-21.5-48T1180,429q-38,1-90.5,2.5t-112,4t-119.5,5t-114.5,4T649,446ZM760,44Q740-22 675-7q-33,9-44.5,30.5T628,77q10,36 25,85.5T687,270t39.5,118.5t39.5,119t35.5,111T828,711q11,39 24,92t26,113.5t26.5,122T931,1159t24.5,109.5T977,1355q19,67 84,52q34-9 45.5-31t1.5-55q-10-37-24.5-87.5t-32-108.5T1016,1006T981,886.5T949.5,777T924,687q-10-38-23.5-90t-28-111T842,366T811.5,246T784,135T760,44Z"/>
      <glyph unicode="$" glyph-name="gid131" horiz-adv-x="1247" d="M656,1394q164,0 277-42.5T1105.5,1235t59.5-171q0-72-42-123t-111-51q-79,0-131.5,45T828,1053v91q0,82-49,133t-137,51q-59,0-105.5-23t-73-68T437,1128q0-59 28-108t94-90t179-79q173-58 269.5-124.5t136-142.5T1183,419q0-126-68-219T919,55.5T612,4Q437,4 317,47.5T135.5,164T74,324q0,75 44.5,122.5T241,494q68,0 117.5-47T408,322V240q0-73 56.5-120T615,73q100,0 160.5,49.5T836,255q0,90-67,156T524,536Q366,591 271.5,655T135,798T93,976q0,117 68.5,211.5T356,1338t300,56Zm24-634H612q0,147-6,262t-14,205t-14.5,161.5T571,1519q0,40 20.5,61t54.5,21q31,0 53-21t22-63q0-54-6-123.5t-14.5-160T686,1026t-6-266Zm-94-94h67q0-147 6-263t14.5-206.5T688,36t6-126q0-39-20.5-60T619-171q-32,0-53.5,21T544-88q0,59 6.5,129.5T565,202t14.5,204T586,666Z"/>
      <glyph unicode="%" glyph-name="gid136" horiz-adv-x="1692" d="M449,1432q169,0 273.5-99.5T827,1060q0-131-50-221T639,702.5T441,656q-185,0-287.5,100.5T51,1045q0,175 107.5,281T449,1432Zm91-392q0,172-26,241t-73,69q-52,0-77-70t-25-221q0-181 27-251t77-70q29,0 50.5,26t34,91.5T540,1040ZM951,777q-20-24-35-30t-38,6q-18,10-20.5,26.5T867,822q15,30 37,76.5t48.5,101T1006,1111t53,108t47,91.5t34,60.5q28,44 67,56t85-14q45-25 52.5-62t-20.5-80q-12-20-38.5-56.5t-61-83t-73-97.5t-76-100t-70-89.5T951,777ZM744,628q20,23 36,29.5t38-4.5q19-11 20.5-27.5T827,583q-14-30-36-76.5T742.5,405T689,292.5t-53-109T589,92T555,32q-28-43-67-54.5T403-9q-44,24-52,61t21,80q12,20 38,56.5t61,84t73.5,98t76,99.5T690,560.5T744,628Zm519,114q169,0 273.5-99.5T1641,370q0-131-50-221T1453,12.5T1255-34Q1070-34 967.5,66.5T865,355q0,175 107.5,281T1263,742Zm91-392q0,172-26,241t-73,69q-52,0-77-70t-25-221q0-181 27-251t77-70q29,0 50.5,26t34,91.5T1354,350Z"/>
      <glyph unicode="&amp;" glyph-name="gid59" horiz-adv-x="2006" d="M1319-48q193,0 330,72t210,207.5T1932,557q0,207-78.5,394T1624,1284q-139,135-332.5,209.5T881,1568q-255,0-429.5-72t-264-201T98,992q0-106 49.5-174T285,750q75,0 123,45.5T456,914q0,45-9.5,78t-23,61.5T400,1113t-10,71q0,79 48.5,143.5t155,102T873,1467q199,0 372.5-70T1541,1205q138-135 205.5-306T1814,558q0-149-43.5-245.5T1653.5,169T1491,122q-66,0-122,31T1250.5,257T1104,456q-72,105-117.5,194.5T919,822.5T897,991q0,87 27,140.5t69,53.5q32,0 50-50t18-129q0-89-21-155T982,748.5T898,710l14-59q141,2 243.5,42.5t158,112.5T1369,975q0,88-45,156t-126,106.5T1011,1276q-137,0-234-58T628,1061T576,839q0-104 24.5-203T673,437.5T793,231q63-95 139-157t171.5-92T1319-48ZM1211,244l31-60q208,74 303.5,187.5T1641,614q0,90-38.5,141.5T1494,807q-68,0-111.5-49.5T1339,640q0-32 8-56.5t16-53t8-68.5q0-36-17-73.5T1301.5,314T1211,244ZM644,618v75q-178-3-304-51T147,509T80,312Q80,147 188.5,59.5T496-28Q598-28 675.5-9.5t133,52T902,121l-51,77q-37-36-75-53t-88-17q-87,0-140.5,69T494,376q0,70 17.5,123.5T563,584t81,34Z"/>
      <glyph unicode="&apos;" glyph-name="gid113" horiz-adv-x="418" d="M200,803q-28,0-50,20.5T120,884L43,1310q-24,126 18.5,193.5T212,1571t148-69.5T374,1311L288,882q-9-41-31.5-60T200,803Z"/>
      <glyph unicode="(" glyph-name="gid81" horiz-adv-x="781" d="M149,609q0,213 67,388.5T396,1294t250,172q83,29 105,0q12-15 4.5-35.5T718,1372q-71-86-127.5-204T501,909T468,609q0-157 33-299T590.5,50T718-153q30-38 37.5-58.5T751-247q-22-29-105,0Q509-197 396-75.5t-180,297T149,609Z"/>
      <glyph unicode=")" glyph-name="gid82" horiz-adv-x="781" d="M632,610q0-213-67-388.5T385-75T135-247q-83-29-105,0q-12,15-4.5,35.5T63-153Q134-67 190.5,51T280,310t33,300q0,157-33,299t-89.5,260T63,1372q-30,38-37.5,58.5T30,1466q22,29 105,0q137-50 250-171.5t180-297T632,610Z"/>
      <glyph unicode="*" glyph-name="gid102" horiz-adv-x="1246" d="M646,994H607q0,75-24,133t-55.5,107T472,1328.5T448,1424q0,139 178,139q85,0 132-35.5T805,1424q0-50-24-95.5T725.5,1234T670,1127T646,994Zm-13,17l-13-34q-71,23-134.5,19T365,976.5t-109-24T156,959q-132,44-76,211q26,79 74,111.5T267,1293q48-15 84.5-51.5t74.5-81t87-85.5t120-64Zm-22-7l31-21q-44-61-59.5-122T564,742T552.5,633T515,543q-80-113-227-10q-68,49-85,104.5T224,749q31,40 77.5,63T403,856t109.5,54t98.5,94Zm0-22l31,22q44-61 98.5-94T850,856t102-44t77-63q80-113-64-216q-67-49-127.5-47.5T738,543q-29,39-37,90T689.5,742T671,861T611,982Zm9,29q72,23 120.5,64t86.5,85.5t74.5,81T986,1293q132,42 188-124q25-78 6.5-133T1097,959q-48-15-100-6.5T888,976T767.5,995.5T633,976l-13,35Z"/>
      <glyph unicode="+" glyph-name="gid119" horiz-adv-x="1136" d="M109,682q0,34 20.5,53.5T177,755H961q27,0 46.5-19.5T1027,682t-19.5-53T961,610H176q-26,0-46.5,19T109,682ZM563,240q-34,0-53.5,20.5T490,308v784q0,27 19.5,46.5T563,1158t53-19.5t19-46.5V307q0-26-19-46.5T563,240Z"/>
      <glyph unicode="," glyph-name="gid66" horiz-adv-x="648" d="M303-18Q203-18 154.5,36T106,174q0,92 63,153.5T326,389q103,0 172.5-73.5T568,91q0-99-25.5-178T469-225.5T351-325T193-385q-48-10-74-2T88-357q-5,24 10.5,43.5T161-280q86,26 139,60.5t77,76T401-55q0,18-9.5,27.5T359-18H303Z"/>
      <glyph unicode="-" glyph-name="gid91" horiz-adv-x="802" d="M679,677q89,0 54-94l-29-83q-15-44-36.5-59.5T611,425H123q-89,0-54,93l29,83q15,45 36.5,60.5T191,677H679Z"/>
      <glyph unicode="." glyph-name="gid65" horiz-adv-x="624" d="M311-28Q250-28 199.5,3.5T119.5,87T90,200q0,62 29.5,113t80,82T311,426q64,0 114.5-31T505,313t29-113q0-61-29-113T425.5,3.5T311-28Z"/>
      <glyph unicode="/" glyph-name="gid87" horiz-adv-x="1009" d="M576,578q-23-52-51.5-121t-59-146.5T404.5,153T344.5-3t-56-141.5T239-258q-19-40-59.5-50.5T88-295T18.5-234T20-156Q42-108 74-45T145.5,89.5T226,236t80.5,148.5t73.5,139T439,641q24,53 52.5,121.5T550,909t60.5,158T671,1223t57,141.5T776,1478q20,40 60,50.5t91-13.5t69.5-61.5T996,1376q-22-48-54.5-111t-72-135T789,983T708.5,834.5T635,695.5T576,578Z"/>
      <glyph unicode="0" glyph-name="gid103" horiz-adv-x="1431" d="M721,1437q206,0 350-86t219.5-251.5T1366,697q0-225-81-390T1056.5,52T709-38Q504-38 359.5,48.5t-220,252T64,703q0,225 81.5,390t229,254.5T721,1437ZM934,651q0,246-25,395t-75.5,215.5T707,1328q-69,0-116-59t-70.5-186.5T497,749q0-247 25-395.5t75-215T723,72q70,0 117,58.5T910.5,317T934,651Z"/>
      <glyph unicode="1" glyph-name="gid104" horiz-adv-x="998" d="M168,1183h75q34,0 49-17.5t15-64.5V234q0-39-16-59t-45-26L138,128Q76,113 76,62q0-29 20-45.5T157,0H868q35,0 52.5,16.5T938,62q0,52-52,65l-96,22q-29,6-43.5,26T732,234V1359q0,73-73,73q-24,0-44.5-5.5T570,1407q-75-41-139-61.5T273,1325H173q-39,0-62-20t-23-51t19.5-51t60.5-20Z"/>
      <glyph unicode="2" glyph-name="gid105" horiz-adv-x="1307" d="M255,320l-62,49L392,484q112,62 188,137.5t114.5,172T733,1016q0,119-16,191t-46,104.5T599,1344q-61,0-87-48.5T486,1164V1031q0-86-52.5-137.5T288,842q-87,0-139,55T97,1051q0,101 58.5,189T335,1382.5T643,1437q184,0 302-52t175-144t57-211q0-104-57-193T941,664T625,491L255,320ZM66,166q0,115 88.5,184T412,419q76,0 145-11.5T692,382t134.5-25.5T969,345q69,0 110.5,27t73.5,85q15,24 31.5,33t36.5,7q24-2 36.5-22.5T1266,410q-13-162-58-260.5T1088.5,6.5T914-38q-80,0-140.5,23T668,60T589,200q-21,49-37.5,65T512,281q-26,0-42.5-24T448,178q-6-79-33-126.5t-71.5-68T237-37q-74,0-122.5,55T66,166Z"/>
      <glyph unicode="3" glyph-name="gid106" horiz-adv-x="1208" d="M566,728l-32,32q19,5 40.5,8.5t46,5.5t51.5,2q145,0 252.5-44T1092,606.5T1152,411q0-136-69-237T887,17.5T585-38Q416-38 303,4T133.5,119.5T77,286q0,91 58,148.5T279,492q93,0 139.5-49T465,313V208q0-62 31-104.5T584,61q52,0 89,29.5t58,94T752,352q0,155-52.5,223.5T552,644H481q-38,0-56,17t-18,48q0,23 10.5,41.5T456,794l446,404l11-113H377q-40,0-62-14t-30-45l-22-87q-6-26-24-42t-52-16q-32,0-53,18t-17,55l36,359q3,41 32,64t77,23h803q55,0 78.5-13.5T1167,1343q0-20-15-46t-64-71L566,728Z"/>
      <glyph unicode="4" glyph-name="gid107" horiz-adv-x="1359" d="M653,628q0,27 9,46t26,34L941,937q25,23 41,29.5t31,6.5q21,0 33.5-12.5T1059,921l1-704q0-30 13.5-45.5T1111,149l72-23q30-10 45-25t15-39q0-29-18.5-45.5T1166,0H534q-79,0-79,61q0,48 60,65l89,23q25,6 37,21t12,45V628ZM423,838q49,45 73,83.5T520,999q0,33-12,62.5t-28,59t-27.5,64T441,1263q0,59 29,105.5t88,73T705,1468q106,0 170-52t64-148q0-39-13.5-82t-56-99T742,954L165,414l-23,57H1199q33,0 54-13t21-43q0-63-77-63H111q-38,0-59,20T31,423q0,19 12,39.5T87,512L423,838Z"/>
      <glyph unicode="5" glyph-name="gid108" horiz-adv-x="1241" d="M85,282q0,91 59,150t146,59q91,0 137-50t46-130V177q0-50 31.5-86.5T597,54q69,0 114.5,76T757,371q0,180-62.5,261.5T529,714q-34,0-66-10t-63.5-30T334,623q-29-23-49.5-32T240,582q-27,0-47.5,15.5T172,646v680q0,45 25.5,71t81.5,26q22,0 48-5t67-18q51-16 112-28t128-19t136-7q114,0 179,19t101,50q33,24 53.5,28.5t34.5-0.5q13-5 21.5-20.5t3.5-47.5q-18-135-75.5-217t-157-118.5T687,1003q-83,0-169,11.5T355.5,1046T222,1093l89,109V678l-54,16q56,54 113.5,88t125,49.5T652,847q152,0 266.5-52T1096,647.5T1159,423q0-147-72-250T884,16T578-38Q415-38 305.5,4t-165,114.5T85,282Z"/>
      <glyph unicode="6" glyph-name="gid109" horiz-adv-x="1318" d="M751,1437q150,0 254-43t158-112.5t54-150.5q0-94-55.5-146.5T1011,932T863.5,981T811,1119v95q0,57-26,86t-80,29q-47,0-87.5-36.5T547,1175T500.5,960T484,631q0-220 26-342.5t69-171T675,69q82,0 129.5,78.5T852,393q0,152-56.5,230.5T649,702q-48,0-92.5-22.5T482,617t-40-94l-67,33q6,78 64.5,145.5t155,109T810,852q137,0 237.5-47.5T1202,665t54-225q0-142-70.5-249.5T986,22.5T680-38Q483-38 345.5,47T136,287.5T64,654q-1,247 82,422t237.5,268T751,1437Z"/>
      <glyph unicode="7" glyph-name="gid110" horiz-adv-x="1121" d="M830,1081l69-33H329q-41,0-59-13.5T244,987L217,879q-7-27-26-43t-51-16q-36,0-54.5,18.5T69,893l28,422q2,38 27,61.5t68,23.5h847q54,0 81.5-23.5T1148,1316q0-23-15-49.5t-55-74.5L868,931q-75-90-120-150T680,680t-30-70.5T643,551q0-53 22.5-92t52-74.5t52.5-81T793,191q0-92-66-160.5T531-38Q405-38 328,33T251,235q0,73 27,146t94,166T558,771l272,310Z"/>
      <glyph unicode="8" glyph-name="gid111" horiz-adv-x="1343" d="M629-37Q439-37 320,8.5T146,133T91,312q0,79 49,144T294.5,563T568,617l2-23q-39-39-54-111T501,342q0-135 44-212T679,53q81,0 120.5,54.5T839,256q0,68-26.5,126t-92,103T537,561Q303,625 199.5,734T96,979q0,119 67,224t205.5,169.5T721,1437q168,0 289-49.5t187-137t66-200.5q0-86-50.5-162.5T1052.5,760T763,700l-29,26q37,34 66.5,83t46,109.5T863,1049q0,96-22,161t-65.5,99T667,1343q-55,0-92-27t-56-74t-19-109q0-90 31.5-159T638,853.5T842,763q218-65 322-164t104-226q0-119-74.5-211.5T976.5,16T629-37Z"/>
      <glyph unicode="9" glyph-name="gid112" horiz-adv-x="1320" d="M569-37Q419-37 314.5,5.5T156,118.5T102,269q0,95 56,147t150,52q95,0 147-49t52-139V186q0-56 27.5-85.5T615,71q64,0 113.5,66.5T807,357t29,413q0,221-26,342.5t-69,170T646,1331q-83,0-130.5-77T468,1014q0-148 56.5-224T670,714q50,0 94,20.5t75,58T878,879l67-19q-6-78-64.5-145.5t-155-109T510,564q-137,0-237.5,46T118,746.5T64,966q0,140 70.5,246t200,165.5T641,1437q197,0 334-84.5T1184,1113t72-366q0-247-82.5-422.5T937,56T569-37Z"/>
      <glyph unicode=":" glyph-name="gid67" horiz-adv-x="626" d="M312-28Q251-28 200.5,3.5T120.5,87T91,200q0,62 29.5,113t80,82T312,426q64,0 114.5-31T506,313t29-113q0-61-29-113T426.5,3.5T312-28Zm0,576q-61,0-111.5,31.5t-80,83.5T91,776q0,62 29.5,113t80,82T312,1002q64,0 114.5-31T506,889t29-113q0-61-29-113t-79.5-83.5T312,548Z"/>
      <glyph unicode=";" glyph-name="gid68" horiz-adv-x="651" d="M325,547q-61,0-111.5,31.5t-80,83.5T104,775q0,62 29.5,113t80,82T325,1001q64,0 114.5-31T519,888t29-113q0-61-29-113t-79.5-83.5T325,547ZM303-18Q203-18 154.5,36T106,174q0,92 63,153.5T326,389q103,0 172.5-73.5T568,91q0-99-25.5-178T469-225.5T351-325T193-385q-48-10-74-2T88-357q-5,24 10.5,43.5T161-280q86,26 139,60.5t77,76T401-55q0,18-9.5,27.5T359-18H303Z"/>
      <glyph unicode="&lt;" glyph-name="gid125" horiz-adv-x="1051" d="M281,698V670l585,343q38,19 54,43t16,45q1,29-16,48.5T865,1169q-31,0-62-13t-77-37L169,797q-40-20-60.5-48.5T88,684q0-37 20.5-65T169,570L730,247q45-23 76.5-36.5T869,197q37,0 54,19.5T939,266q0,21-16,45.5T870,354L281,698Z"/>
      <glyph unicode="=" glyph-name="gid124" horiz-adv-x="1136" d="M116,865q0,34 20.5,53.5T184,938H968q27,0 46.5-19.5T1034,865t-19.5-53T968,793H183q-26,0-46.5,19T116,865Zm0-360q0,34 20.5,53.5T184,578H968q27,0 46.5-19.5T1034,505t-19.5-53T968,433H183q-26,0-46.5,19T116,505Z"/>
      <glyph unicode="&gt;" glyph-name="gid126" horiz-adv-x="1051" d="M763,670v28L178,355q-38-19-54-43t-16-45q-1-29 16-48.5T179,199q31,0 62,13t77,37L875,571q40,20 60.5,48.5T956,684q0,37-20.5,65T875,798L314,1121q-45,23-76.5,36.5T175,1171q-37,0-54-19.5T105,1102q0-21 16-45.5t53-42.5L763,670Z"/>
      <glyph unicode="?" glyph-name="gid61" horiz-adv-x="1175" d="M424,668l21-104q9-34 28-50t54-16q31,0 48,15t31,55l20,86q9,34 23.5,49T697,725l71,14q186,37 268,125.5t82,230.5q0,183-131.5,279.5T581,1471q-155,0-274.5-50t-188-133T50,1105q0-93 53-144.5T243,909q101,0 155.5,60T453,1139l-1,91q0,62 31.5,95.5T567,1359q61,0 90.5-54T687,1149q0-133-23-208T573,836l-68-29q-57-24-75.5-57T424,668ZM519-28Q458-28 407.5,3.5T327.5,87T298,200q0,62 29.5,113t80,82T519,426q64,0 114-31t79.5-82T742,200q0-61-29.5-113T633,3.5T519-28Z"/>
      <glyph unicode="@" glyph-name="gid98" horiz-adv-x="1939" d="M1091,495q-24,10-43.5,15.5T998,516q-47,0-80-33.5T885,386t29.5-97T991,255q34,0 63,13.5t41,38.5l25-62q-42-71-127-109T813,98q-133,0-214,62.5T518,323q0,120 113,194t331,74q57,0 89.5-7t67.5-24l-28-65Zm391-251q44,0 85.5,26t74.5,75.5T1694.5,467T1714,632q0,213-97,366.5T1355.5,1234T985,1316q-169,0-309-55.5T434.5,1103t-156-241T224,555q0-233 98-408T592.5-125T991-222q186,0 352.5,60T1663,43q31,28 55,34t41-10q16-13 11-38t-37-60q-71-79-178.5-146.5T1304.5-287T989-329q-193,0-357,61T346.5-92T158,186.5T91,555q0,182 66,340t186.5,277t286,185T994,1423q178,0 332.5-52.5t271.5-154T1780,968t65-334q0-159-54-279.5t-156-189T1389,98q-87,1-152.5,19.5t-103.5,53T1090,253l-29,6V848q0,44-20.5,72.5T980,949q-35,0-56.5-20T902,876V810q0-75-55.5-117T714,651q-63,0-111,32T555,785q0,76 53,134.5t157,92t258,33.5q116,0 204.5-29t139-90T1417,770V318q0-35 15-54.5t50-19.5Z"/>
      <glyph unicode="A" glyph-name="gid3" horiz-adv-x="1546" d="M353,588H937l2-135H350l3,135ZM502,61q0-28-18.5-44.5T425,0H105Q66,0 46.5,16.5T27,61q0,20 10,34t33,28l24,13q33,18 51,47t40,99l272,868q17,55 11.5,80T428,1271q-28,13-39.5,29T377,1339q0,29 19.5,45t59.5,16h602q40,0 59-16t19-45q0-25-12-40.5t-35-26.5q-25-11-30-29.5t8-60.5l294-916q19-62 36.5-91t46.5-42q33-16 44.5-31.5T1500,61q0-28-19.5-44.5T1421,0H914q-41,0-60,16.5T835,61q0,23 12.5,37T884,123l39,14q26,11 23,30.5T929,231L619,1239l40,28L357,305q-15-49-15-79t18.5-50.5T420,135l34-14q22-11 35-24t13-36Z"/>
      <glyph unicode="B" glyph-name="gid4" horiz-adv-x="1513" d="M1475,335q0-149-129.5-242T949,0H170q-40,0-59,16.5T92,61q0,49 49,67l43,14q26,9 38.5,24T235,206v989q0,24-12.5,39T184,1258l-43,14q-49,18-49,67q0,29 19,45t59,16H779q193,0 331-52t211.5-144T1395,988q0-101-59.5-179T1162,686.5T885,642l48,39q162,0 284-43.5T1407,516t68-181ZM802,591H544V693H760q78,0 130.5,29.5t79,90T996,964q0,98-35,169T861,1243t-157,39H659V231q0-58 33-85.5T786,118h66q64,0 110,27.5t70,79.5t24,124q0,113-66.5,177.5T802,591Z"/>
      <glyph unicode="C" glyph-name="gid5" horiz-adv-x="1432" d="M1373,394q0-77-41-153.5t-117.5-140T1029.5-1T785-39Q563-39 401.5,54.5T152,313T64,692q0,161 52.5,297t147,237t221,156.5T758,1438q95,0 154-16.5t94-34t59-17.5q28,0 45.5,16t35.5,31.5t47,15.5q22,0 37.5-14.5T1256,1369l103-353q8-29-7-51.5T1309,935q-31-7-56.5,4.5T1213,983q-51,120-113.5,188.5t-131.5,96T825,1295q-77,0-138.5-36T581,1154.5T514,989T491,772q0-195 54-326T694,249.5T913,184q112,0 202,56.5T1260,405q16,29 34,38.5t40,5.5q21-4 30-18t9-37Z"/>
      <glyph unicode="D" glyph-name="gid6" horiz-adv-x="1651" d="M92,61q0,49 49,67l43,14q26,9 38.5,24T235,205v990q0,24-12.5,39T184,1258l-43,14q-49,18-49,67q0,29 19,45t59,16H768q184,0 335-55t260-155t167.5-237.5T1589,649q0-188-89-334.5T1248.5,84T863,0H170q-40,0-59,16.5T92,61Zm721,69q97,0 173.5,54.5T1107,355t44,300q0,145-29,259t-85.5,193.5t-136,121T720,1270H660V235q0-55 28.5-80T771,130h42Z"/>
      <glyph unicode="E" glyph-name="gid7" horiz-adv-x="1366" d="M501,773H776q62,0 89,25t46,96q8,31 25.5,45T977,953q48,1 61-54l79-312q8-34-1-53.5T1081,505t-48-2.5T995,532q-31,47-57,71.5T880,637t-82,9H501V773ZM92,1339q0,29 19,45t59,16H930q43,0 71,9t53,18.5t57,9.5q40,0 61-23t36-75l84-284q10-32 0-54t-38-32q-33-11-59,0.5t-42,43.5q-43,79-80,129.5T998,1221t-79.5,38.5T825,1270H660V245q0-58 29.5-86.5T775,130h79q73,0 129,23.5T1090,242t110,190q13,29 36,39.5t52,5.5q32-6 46.5-29.5T1339,389L1247,62q-14-50-35.5-74T1146-36q-29,0-52.5,9T1041-9T969,0H170q-40,0-59,16.5T92,61q0,49 49,67l43,14q26,9 38.5,24T235,205v990q0,24-12.5,39T184,1258l-43,14q-49,18-49,67Z"/>
      <glyph unicode="F" glyph-name="gid8" horiz-adv-x="1282" d="M895,1400q44,0 74,8.5t54.5,16t48.5,7.5q43,0 64.5-21t36.5-72l86-303q9-29-8-48.5T1204,963q-24-4-47.5,5t-38.5,40q-54,108-103.5,164.5t-102,77T794,1270H660V205q0-24 11.5-41T710,142l68-13q30-6 43-22t13-46q0-28-19-44.5T756,0H170q-40,0-59,16.5T92,61q0,49 49,67l43,14q26,9 38.5,24T235,205v990q0,24-12.5,39T184,1258l-43,14q-49,18-49,67q0,29 19,45t59,16H895ZM505,733H786q64,0 91.5,25.5T927,859q9,28 25,39t38,12q53,0 65-51l78-315q8-33-2-51t-34-27q-26-9-48-1t-42,34q-29,42-54,65.5T896,597t-83,9H505V733Z"/>
      <glyph unicode="G" glyph-name="gid9" horiz-adv-x="1557" d="M1386,35q0-38-18-56t-54-18q-31,0-57,17t-49.5,39.5t-44.5,40T1121,75q-24,0-52.5-17.5T999.5,18t-99-39T760-38Q596-38 467,14T248.5,163t-137,232.5T64,698q0,160 55,295t153,235t230,155t286,55q102,0 165.5-17t101.5-34t64-17q28,0 45.5,16t36,31.5T1248,1433q23,0 38-14.5t25-49.5l103-355q8-29-7-51.5T1364,933q-31-7-56,4.5T1269,981q-53,123-119.5,191t-142,96T853,1296q-112,0-193.5-64T534,1049.5T490,769q0-203 51.5-340.5T683,222t204-69q31,0 54,8t38,22t22.5,34t7.5,45V493q0,21-10.5,32.5T956,545l-49,13q-29,8-45,23.5T846,621q0,27 19,42.5T924,679h505q41,0 60-15.5t19-41.5q0-23-12-37t-37-24l-27-10q-22-7-34-20t-12-38V35Z"/>
      <glyph unicode="H" glyph-name="gid10" horiz-adv-x="1776" d="M413,730h850V595H413V730ZM660,205q0-24 13-39t37-24l43-14q49-18 49-67q0-28-19-44.5T724,0H170q-40,0-59,16.5T92,61q0,49 49,67l43,14q26,9 38.5,24T235,205v990q0,24-12.5,39T184,1258l-43,14q-49,18-49,67q0,29 19,45t59,16H724q40,0 59-16t19-45q0-49-49-67l-43-14q-24-9-37-24t-13-39V205Zm881,0q0-24 13-39t37-24l44-14q48-18 48-67q0-28-19-44.5T1605,0H1052q-40,0-59,16.5T974,61q0,49 48,67l44,14q25,9 37.5,24t12.5,39v990q0,24-12.5,39t-37.5,24l-44,14q-48,18-48,67q0,29 19,45t59,16h553q40,0 59-16t19-45q0-49-48-67l-44-14q-24-9-37-24t-13-39V205Z"/>
      <glyph unicode="I" glyph-name="gid11" horiz-adv-x="894" d="M659,205q0-24 13-39t38-24l43-14q49-18 49-67q0-28-19-44.5T724,0H170q-40,0-59,16.5T92,61q0,49 49,67l43,14q26,9 38.5,24T235,205v990q0,24-12.5,39T184,1258l-43,14q-49,18-49,67q0,29 19,45t59,16H724q40,0 59-16t19-45q0-49-49-67l-43-14q-25-9-38-24t-13-39V205Z"/>
      <glyph unicode="J" glyph-name="gid12" horiz-adv-x="1153" d="M1007,272q0-138-130.5-222.5T518-35Q300-35 178,46T56,266q0,95 52.5,153T250,477q77,0 127.5-53.5T428,271V186q0-52 25.5-80.5T533,77q53,0 84.5,29T649,189q0,50-23,95t-54,97T518,501.5T495,666v528q0,26-11.5,42T444,1258l-62,13q-29,6-42.5,22T326,1339q0,29 19,45t59,16H983q41,0 60-16t19-45q0-49-49-67l-43-14q-25-9-38-24t-13-39V693q0-78 13.5-133T963,461t30.5-88T1007,272Z"/>
      <glyph unicode="K" glyph-name="gid13" horiz-adv-x="1691" d="M534,567l532,506q51,48 67.5,84.5t4.5,62.5t-47,41l-35,13q-24,10-36,25.5t-12,39.5q0,29 19.5,45t59.5,16h429q41,0 60-16t19-45q0-25-14.5-38.5T1524,1270q-15-6-30.5-15.5t-42-30t-71-60T1263,1059L591,444L534,567ZM744,709l326,271l464-769q24-39 43-54.5t41-22.5q28-13 39.5-31.5T1669,61q0-28-19.5-44.5T1590,0H1045q-41,0-60,16.5T966,62q0,24 11.5,40t29.5,23l33,10q19,7 19,25t-23,57L744,709ZM660,205q0-24 9.5-38.5T701,142l35-14q29-13 39-28t10-39q0-28-19-44.5T706,0H170q-40,0-59,16.5T92,61q0,49 49,67l43,14q26,9 38.5,24T235,205v990q0,24-12.5,39T184,1258l-43,14q-49,18-49,67q0,29 19,45t59,16H724q40,0 59-16t19-45q0-49-49-67l-43-14q-25-9-37.5-24T660,1195V205Z"/>
      <glyph unicode="L" glyph-name="gid14" horiz-adv-x="1314" d="M753,1272l-43-14q-25-9-38-24t-13-39V203q0-40 20.5-56.5T739,130h99q53,0 93,15t75,55.5T1077,319l67,141q15,32 38.5,42.5T1236,504q31-9 43.5-30t2.5-56L1185,62q-15-50-36.5-74T1084-36q-25,0-49,9T980.5-9T907,0H170q-40,0-59,16.5T92,61q0,49 49,67l43,14q26,9 38.5,24T235,205v990q0,24-12.5,39T184,1258l-43,14q-49,18-49,67q0,29 19,45t59,16H724q40,0 59-16t19-45q0-49-49-67Z"/>
      <glyph unicode="M" glyph-name="gid15" horiz-adv-x="1938" d="M1044,457L912,433l317,845q26,69 60,95.5t95,26.5h365q40,0 59-16t19-45q0-25-12.5-42t-35.5-25l-42-14q-31-11-42-28t-9-53l67-961q2-36 12.5-50.5T1803,142l41-14q22-7 33.5-23.5T1889,65q0-28-19.5-46.5T1810,0H1270q-41,0-60,16.5T1191,61q0,24 10.5,41t38.5,26l42,14q31,11 42,27t9,48l-76,1008l119,10L968,143q-25-68-51.5-87T854,37q-27,0-49,6.5T764,74t-40,75L308,1198l114,25L343,252q-4-47 20.5-71.5T426,136l33-16q16-8 25.5-21.5T494,64q0-29-19-46.5T416,0H114Q74,0 55,16.5T36,61t15,43t40,27l25,11q33,14 55,39.5T197,253l72,884q5,57-6.5,83.5T218,1258l-41,13q-24,9-36.5,25.5T128,1338q0,62 79,62H568q56,0 90-23.5t62-95.5l324-824Z"/>
      <glyph unicode="N" glyph-name="gid16" horiz-adv-x="1542" d="M545,61q0-28-18.5-44T468,0H150Q110,1 90.5,17T71,61q0,47 54,70l28,11q46,20 64.5,46T236,269v781q0,36-7,56t-33,54l-80,105q-20,28-28,44t-8,33q0,28 19,43t50,15H461q37,0 60.5-12.5T570,1341l678-945l-56-159v894q0,54-16.5,80t-66.5,47l-27,11q-54,25-54,70q0,29 19,45t59,16h317q40,0 59.5-16t19.5-45q0-46-54-70l-28-11q-46-19-64.5-45t-18.5-82V345q0-38 6.5-66.5T1367,227l62-85q24-32 28.5-48t4.5-33q0-28-18.5-44.5T1393,0H1033q-61,0-61,49q0,17-7,33.5T926,143L253,1080l128,81V268q0-52 17-78t66-48l28-11q53-24 53-70Z"/>
      <glyph unicode="O" glyph-name="gid17" horiz-adv-x="1603" d="M796,1438q172,0 309-53.5T1338.5,1232T1486,996t51-305q0-154-50.5-287t-146-232.5T1110,16.5T806-39Q635-39 498,14.5T264.5,167t-148,236.5T65,709q0,154 51,286.5t146.5,232t230.5,155T796,1438Zm305-998q0,134-22.5,261t-61,237T929,1131.5T823,1262t-113,47q-65,0-111-40.5t-70-118T505,960q0-134 22.5-261.5t61-237.5T677,268T783,137.5T896,90q67,0 112,40.5t69,118T1101,440Z"/>
      <glyph unicode="P" glyph-name="gid18" horiz-adv-x="1496" d="M1442,878q0-131-69-227.5t-198-149T868,449q-117,0-208.5,25.5T495,545l15,113q38-27 74.5-44t77-25t88.5-8q78,0 141.5,34T993,718t38,171q0,118-43,203.5t-118,132T697,1271H660V205q0-24 11.5-41T710,142l67-13q30-6 43-22t13-46q0-28-19-44.5T755,0H170q-40,0-59,16.5T92,61q0,49 49,67l43,14q26,9 38.5,24T235,205v990q0,24-12.5,39T184,1258l-43,14q-49,18-49,67q0,29 19,45t59,16H710q234,0 397.5-67t249-185T1442,878Z"/>
      <glyph unicode="Q" glyph-name="gid19" horiz-adv-x="1604" d="M794,1438q172,0 309-53.5T1336.5,1232t148-236T1536,691q0-154-51-287T1339,171.5t-230.5-155T805-39Q633-39 496.5,14.5T263,167T114.5,403.5T63,709q0,154 51,286.5t146.5,232t230.5,155T794,1438Zm307-998q0,134-22,261.5T1018,939t-89,193T823,1262t-113,47q-65,0-111-40.5t-70-118T505,960q0-133 22.5-260.5t61-238t88.5-194T783,137T896,90q67,0 112,40.5T1077,249t24,191ZM818,340q-9,35-2,62t39,36q35,9 55-9t31-51q38-124 82-204.5t95-127T1231.5-19T1370-38q55,0 83,11.5t46,23T1542,10q18,1 27-9t9-29q1-14-4-30t-14-38l-50-115q-15-37-47-53.5T1368-281q-88,0-167.5,34.5T1051-138T922.5,54.5T818,340Z"/>
      <glyph unicode="R" glyph-name="gid20" horiz-adv-x="1619" d="M1474,911q0-92-43-169T1308.5,612.5T1118,540q-50-9-91-20t-82.5-19T850,493q-62,0-114.5,8.5t-96,24.5T561,563l3,116q27-20 58.5-33t69-19t83.5-6q125,0 195,68.5T1040,902q0,111-42,196T881.5,1232T711,1281H659V206q0-25 10-39.5T701,142l39-14q29-13 39-28t10-39q0-61-78-61H170q-40,0-59,16.5T92,61q0,49 49,67l43,14q26,9 38.5,24T235,206v989q0,24-12.5,39T184,1258l-43,14q-49,18-49,67q0,29 19,45t59,16H727q241,0 408-62t253-172t86-255ZM814,544l412,46l232-391q18-30 34-46t41-26q26-11 37.5-26.5T1582,61q0-28-19.5-44.5T1503,0H1023q-75,0-75,61q0,15 6.5,26.5T977,109l17,9q19,12 21.5,25.5T1005,182L814,544Z"/>
      <glyph unicode="S" glyph-name="gid21" horiz-adv-x="1275" d="M678-30q-73,0-125.5,15.5t-87,31T409,32T369,22T334-1.5T299.5-25T261-35q-28,0-46.5,16.5T190,36L130,376q-4,27 8,46.5T178,452q31,11 54.5-0.5T273,406q62-118 123-184t123.5-92.5T647,103q88,0 140.5,42T840,264q0,50-24.5,89.5t-96.5,76T504,508Q349,555 255.5,619.5T120,775T78,991q0,127 62,225.5t175.5,154T582,1426q84,0 142-15t98-31t68-16q24,0 42,16.5t39,33.5t53,17q29,0 48.5-18.5T1107,1343l91-331q9-34-3-60t-42-36t-53.5,2T1061,959q-65,127-137.5,200T777,1262.5T633,1293q-85,0-133-47.5T452,1122q0-47 23-87t93.5-80.5T778,865q154-54 246-118.5T1157,598t41-197q0-120-62.5-217.5T957,28T678-30Z"/>
      <glyph unicode="T" glyph-name="gid22" horiz-adv-x="1465" d="M390,1400h685q43,0 73,8.5t54,16t49,7.5q44,0 66-21t35-72l65-333q7-36-6-59t-45-28q-29-7-51.5,3.5T1277,964q-58,119-99.5,183.5t-79,90T1013,1263H945V205q0-24 13-39t38-24l43-14q48-18 48-67q0-61-78-61H456q-40,0-59,16.5T378,61q0,49 48,67l44,14q25,9 37.5,24T520,205V1263H452q-47,0-85-25.5t-79.5-90T188,964q-15-31-37.5-41.5T99,919q-31,5-44,28t-7,59l65,333q14,51 35.5,72t65.5,21q25,0 49-7.5t54-16t73-8.5Z"/>
      <glyph unicode="U" glyph-name="gid23" horiz-adv-x="1524" d="M1198,615l-37,522q-3,53-23,82t-61,40l-34,9q-36,9-51,25.5T977,1338t19,45t54,17h369q35,0 54.5-17t19.5-45t-16.5-43.5T1425,1268l-32-9q-55-16-73-48t-14-84l39-508q5-53 7.5-103.5T1355,411q1-128-60.5-229.5T1107,20.5T784-39Q585-39 453,16T254.5,171.5T189,409q0,19 1.5,47.5t4,74T201,644l35,549q2,28-10,43t-48,22l-42,10q-68,15-68,70q0,28 19.5,45t54.5,17H751q36,0 55-17t19-45t-16-44.5T758,1268l-44-10q-26-5-38-20.5T662,1194L628,640q-4-63-5.5-116T621,433q-1-170 71-246.5T890,110q98,0 169,37t109.5,105T1206,414q0,71-2.5,116t-5.5,85Z"/>
      <glyph unicode="V" glyph-name="gid24" horiz-adv-x="1493" d="M1006,1339q0,29 18.5,45t58.5,16h317q40,0 59.5-16t19.5-45q0-21-12-34.5t-37-25.5l-30-14q-36-17-60-49t-46-102L1007,238q-14-46-20-72.5T981,112V58q0-27-18-42.5T918,0H582q-26,0-43,15.5T522,61v53q0,16-6.5,39T501,203L168,1181q-12,36-25.5,52.5T104,1262l-31,13q-42,20-42,64q0,29 19.5,45t59.5,16H661q41,0 59.5-16t18.5-45q0-23-11.5-36.5T690,1278l-41-15q-26-11-32.5-34t8.5-69L932,236L816,132l329,996q17,50 5.5,82t-61.5,55l-35,14q-24,11-36,23.5t-12,36.5Z"/>
      <glyph unicode="W" glyph-name="gid25" horiz-adv-x="2206" d="M1052,1096l142-23L925,210q-9-26-14-50.5T906,101V60q0-29-16.5-44.5T848,0H528q-26,0-43,15.5T468,60v41q0,19-3,34t-12,47L152,1189q-10,33-24,48.5T90,1263l-38,15q-22,8-31,25t-9,37q0,28 19,44t58,16H624q40,0 59-16t19-44q0-43-42-58l-41-11q-25-7-30-32t7-68L877,209L742,114l310,982Zm696,243q0,29 19,45t58,16h299q40,0 58.5-16.5T2201,1339q0-21-10-34t-38-26l-30-14q-37-18-61-49.5t-42-96.5L1772,210q-11-40-15-61t-4-48V60q0-29-17-44.5T1694,0H1366q-25,0-42,15.5T1307,60v41q0,16-2.5,32T1291,183L1003,1188q-13,46-22,60t-26,21l-38,14q-22,9-31.5,22.5T876,1339q0,29 19.5,45t58.5,16h517q40,0 59-16t19-45q0-22-11.5-36.5T1502,1279l-37-10q-24-8-29.5-28.5t7.5-70.5l270-963l-123-91l284,1021q14,50 3,82.5t-59,51.5l-31,11q-20,9-29.5,23t-9.5,34Z"/>
      <glyph unicode="X" glyph-name="gid26" horiz-adv-x="1494" d="M1312,223q22-32 37.5-49t33.5-26.5t43-19.5q26-11 40-27t14-40q0-28-19-44.5T1402,0H800q-40,0-59,16.5T722,61q0,26 13.5,42T780,131q25,9 35,25t5.5,39.5T796,249L176,1192q-15,22-27.5,36.5T121,1253t-37,19q-29,13-40,28t-11,39q0,29 19,45t59,16H686q41,0 58-16.5t17-44.5q0-25-8.5-40.5T722,1276l-32-9q-28-8-30.5-26t21.5-55l631-963ZM877,686L728,728l313,416q33,46 29,75.5t-39,43.5l-27,10q-19,9-31.5,25.5T960,1339q0,29 18,45t56,16h308q78,0 78-60q0-23-17.5-40.5T1351,1265q-39-18-70-54t-88-109L877,686ZM608,733l148-51L418,247q-37-49-31.5-77T424,129l21-8q22-10 32.5-23.5T488,61q0-28-18.5-44.5T414,0H105Q66,0 47,16.5T28,61q0,21 12,36.5T84,129q43,21 74,45.5t58,56T273,300L608,733Z"/>
      <glyph unicode="Y" glyph-name="gid27" horiz-adv-x="1409" d="M902,436L562,387L161,1187q-19,39-33,53.5T92,1265l-28,11q-22,9-32.5,26T21,1339q0,29 19,45t60,16H645q41,0 60-16t19-45q0-51-50-67l-32-9q-32-10-37.5-29t12.5-60L896,543L758,477l309,652q21,46 10.5,82t-59.5,54l-30,11q-17,7-28.5,23T948,1339q0,29 19,45t59,16h292q40,0 59-16t19-45q0-22-9.5-36t-30.5-25l-16-9q-20-9-37-25t-36-46t-45-85L902,436ZM511,517H936V205q0-24 13-39t37-24l43-14q49-18 49-67q0-28-19-44.5T1000,0H447q-40,0-59,16.5T369,61q0,49 48,67l43,14q26,9 38.5,24T511,205V517Z"/>
      <glyph unicode="Z" glyph-name="gid28" horiz-adv-x="1312" d="M1211,1253L469,47L258,130H797q48,0 88.5,10t76,35.5t67,72T1090,367l29,72q13,32 37,42t53,4q32-6 44-29t5-56L1184,62q-11-48-34-71t-67-23q-24,0-48,8T981-8T908,0H93Q58,0 41,16.5T24,61q0,17 8,38.5T57,147L803,1361l43-91H500q-60,0-103.5-17T318,1194.5T249,1076l-26-56q-17-31-40.5-40T134,974q-31,5-46,26t-8,58l50,281q10,49 33.5,71.5T231,1433q24,0 48.5-8t55-16.5T407,1400h768q34,0 52-15.5t18-44.5q0-16-8.5-37.5T1211,1253Z"/>
      <glyph unicode="[" glyph-name="gid83" horiz-adv-x="754" d="M453,1287V-64q0-39 20.5-55.5T538-136H673q73,0 73-61q0-25-17.5-41.5T673-255H243q-49,0-69.5,22.5T153-161V1384q0,50 20.5,72t69.5,22H673q38,0 55.5-16.5T746,1419q0-60-73-60H538q-44,0-64.5-16T453,1287Z"/>
      <glyph unicode="\" glyph-name="gid88" horiz-adv-x="1009" d="M433,578q23-52 51.5-121t59-146.5t61-157.5t60-156t56-141.5T770-258q19-40 59.5-50.5T921-295t69.5,61T989-156q-22,48-54,111T863.5,89.5T783,236T702.5,384.5T629,523.5T570,641q-24,53-52.5,121.5T459,909t-60.5,158T338,1223t-57,141.5T233,1478q-20,40-60,50.5T82,1515t-69.5-61.5T13,1376q22-48 54.5-111t72-135T220,983t80.5-148.5t73.5-139T433,578Z"/>
      <glyph unicode="]" glyph-name="gid84" horiz-adv-x="772" d="M319-64V1287q0,39-20.5,55.5T234,1359H99q-73,0-73,61q0,25 17.5,41.5T99,1478H529q49,0 69.5-22.5T619,1384V-161q0-50-20.5-72T529-255H99q-38,0-55.5,16.5T26-196q0,60 73,60H234q44,0 64.5,16T319-64Z"/>
      <glyph unicode="^" glyph-name="gid117" horiz-adv-x="949" d="M531,1276H424L706,792q37-47 72-56.5t65,5.5q25,14 29,44.5T854,853L623,1324q-39,67-71,87t-75,20q-41,0-73.5-20T331,1324L95,856q-21-38-18-69t29-45q30-15 64.5-5.5T242,794l289,482Z"/>
      <glyph unicode="_" glyph-name="gid95" horiz-adv-x="1026" d="M1-272q0,37 16,59t51,22H957q35,0 50.5-21.5T1023-272t-15.5-60T957-354H68q-35,0-51,22T1-272Z"/>
      <glyph unicode="`" glyph-name="gid153" horiz-adv-x="563" d="M384,1325l78-199q10-18 12.5-35T463,1060q-13-12-34.5-12.5T388,1055L209,1164q-68,36-104.5,75T61,1335q-8,51 25,97.5t99,53.5q73,10 119.5-35T384,1325Z"/>
      <glyph unicode="a" glyph-name="gid29" horiz-adv-x="1179" d="M668,134v22l-28,1V793q0,46-24.5,72.5T549,892q-34,0-57-15.5T469,836V732q0-78-53-120.5T265,569q-83,0-124,36T100,705q0,65 57.5,129.5T330.5,942T619,985q205,0 304.5-77T1023,699V210q0-21 10-34t30-13q18,0 28.5,9.5T1111,192q7,7 14,11.5t16,4.5q16,0 23-11t7-29q0-41-30-86T1052,5T905-27Q800-27 734,18T668,134ZM62,212q0,133 120.5,212T521,503q60,0 106-9t76-25l-30-80q-25,13-47.5,19.5T576,415q-57,0-90-35.5T453,279q0-68 30.5-103T565,141q35,0 66.5,16.5T681,198l23-73Q655,53 563.5,13T368-27Q231-27 146.5,41T62,212Z"/>
      <glyph unicode="b" glyph-name="gid30" horiz-adv-x="1276" d="M513,1422V82L357,15Q282-10 251.5-17.5T195-25q-31,0-50,17T126,42V1214q0,30-8,42.5T93,1274l-30,6q-20,6-29,18t-9,30q0,22 12,34.5T82,1388l216,82q50,19 78.5,26.5T427,1504q43,0 64.5-23t21.5-59ZM444,635l-63,64q83,135 188.5,211.5T809,987q118,0 212-61t148-168t54-247q0-162-66-283T977,40T720-27Q600-27 510,25T356,182l98,68q46-69 91.5-99.5T645,120q52,0 92.5,35.5t62.5,113T822,471q0,116-22.5,187.5t-62,105T647,797q-59,0-109-38.5T444,635Z"/>
      <glyph unicode="c" glyph-name="gid31" horiz-adv-x="1094" d="M1031,687q0-71-52.5-120.5T837,517q-85,0-128.5,46T665,681v34q0,65-30.5,103.5T554,857q-42,0-77.5-29t-57-87T398,596q0-119 40.5-199T549,276t160-41q70,0 124.5,20.5T935,326q25,24 39,32.5t27,8.5q19,0 27.5-18t8.5-44q-2-89-60-165T816.5,18.5T580-27Q429-27 310.5,33t-187,168T55,454q0,153 67,273.5t189.5,190T601,987q133,0 229.5-40.5T979,838t52-151Z"/>
      <glyph unicode="d" glyph-name="gid32" horiz-adv-x="1297" d="M777,173l-14,2V1214q0,30-8,42.5T730,1274l-30,6q-20,6-29,18t-9,30q0,22 12,34.5t45,25.5l216,82q47,18 76,26t56,8q41,0 62.5-23t21.5-59V195q0-38 6.5-53.5T1180,119l26-10q22-9 31.5-22.5T1247,54q0-25-16.5-39.5T1177,0H932Q869,0 823,44T777,151v22ZM54,449q0,162 66,283T300,920t257,67q120,0 210-52.5T921,778l-98-69q-46,70-92,100.5T632,840q-52,0-92.5-35.5T477,691.5T455,488q0-115 22.5-186.5t62-105.5T630,162q60,0 109.5,39T833,325l63-64Q813,127 707.5,50T468-27Q349-27 255.5,33.5T108,201T54,449Z"/>
      <glyph unicode="e" glyph-name="gid33" horiz-adv-x="1103" d="M1050,602q0-65-35.5-100.5T912,466H311v96H613q54,0 54,50q0,129-34,187t-90,58q-42,0-75-29t-52-87T397,596q0-186 84.5-273.5T710,235q72,0 129.5,20.5T944,328q26,24 39.5,32.5T1010,369q19,0 27.5-18.5T1046,306q-1-88-60-164.5T822.5,19T580-27Q430-27 311,33T123,201.5T54,454q0,160 63.5,279.5T302.5,920T595,987q149,0 250.5-50t153-136.5T1050,602Z"/>
      <glyph unicode="f" glyph-name="gid34" horiz-adv-x="878" d="M601,196q0-34 11-52t37-21l102-13q28-3 40-18.5T803,55q0-55-67-55H144Q113,0 95.5,14T78,53q0,22 12,36t39,23l31,8q31,9 42.5,26T214,194V723q0,19-9.5,32.5T167,781l-42,17q-36,17-49.5,32T62,864q0,22 16,36t49,14H294l-78-32v30q0,22-17.5,44.5t-40.5,50t-40.5,66T100,1165q0,133 103.5,214T495,1460q120,0 202.5-36.5T822,1326t42-132q0-77-43.5-117.5T708,1036q-77,0-123,45t-46,122v78q0,42-25,62.5T451,1364q-46,0-69.5-27.5T358,1258q0-49 21.5-88.5t53-72.5t63.5-62.5T549.5,975T571,911V859l-41,55H763q29,0 46-12.5T826,866q0-34-34-57.5T681,785H601V196Z"/>
      <glyph unicode="g" glyph-name="gid35" horiz-adv-x="1212" d="M760,134q-137,15-197.5,26.5t-75,22T473,203q0,11 9,20.5T511,240l-12,19q-127-5-199-33.5T197.5,153T167,56q0-54 30.5-91.5T309-98.5T542-143q123-16 193.5-31.5t99-36T863-263q0-34-21.5-58T768-357T623-369q-162,0-225,48T335-192q0,27 14,50.5T388-109l-9,31q-191-22-262-75.5T46-280q0-62 45.5-109.5t157-74T556-490q316,0 481,96t165,245q0,85-43.5,141.5T1018,82.5T760,134ZM749,883l84-7q32,78 55.5,106t59.5,28q35,0 54-16.5t34-38.5t36.5-38.5T1134,900q58,0 93,43t35,113q0,78-46.5,120T1096,1218q-94,0-176-62T784,965l-35-82Zm367-259q0,101-58,182T888.5,934T616,981q-167,0-288.5-49.5t-187-139T75,585q0-100 58.5-181.5T304.5,275T576,228q168,0 289,49.5t186,139T1116,624ZM548,874q58,9 98.5-53.5T710,623q23-134 6.5-203.5T642,341q-38-5-69,20.5T519.5,445T481,593q-16,89-13.5,149.5t23,93.5T548,874Z"/>
      <glyph unicode="h" glyph-name="gid36" horiz-adv-x="1345" d="M546,1422V195q0-38 7-53t22-23l25-11q32-17 32-50q0-58-70-58H132Q96,0 79.5,14.5T63,54q0,19 9.5,32.5T103,109l27,10q16,7 22.5,22.5T159,195V1214q0,30-8,42.5T126,1274l-30,6q-20,6-29,18t-9,30q0,22 12,34.5t45,25.5l216,82q47,18 76,26t56,8q41,0 62-23t21-59ZM512,665l-56,59l33,30Q625,879 722,933t181,54q127,0 199-87t85-227l48-478q4-37 9-53t21-23l26-10q21-9 31-22.5T1332,54q0-25-16.5-39.5T1262,0H828q-71,0-71,58q0,33 32,50l25,11q16,8 24.5,23.5T844,195L802,618q-7,70-34,104.5T686,757q-33,0-69-15.5T548,697l-36-32Z"/>
      <glyph unicode="i" glyph-name="gid38" horiz-adv-x="684" d="M546,903V195q0-38 7-53.5T575,119l26-10q22-9 31.5-22.5T642,54q0-25-16.5-39.5T573,0H132Q96,0 79.5,14.5T63,54q0,19 9.5,32.5T103,109l27,10q16,7 22.5,22.5T159,195V695q0,30-8,43t-25,17l-30,6q-20,6-29,18t-9,30q0,22 12,34.5T115,869l216,82q49,19 77.5,26.5T459,985q44,0 65.5-23T546,903ZM331,1089q-104,0-164.5,49.5T106,1272t60.5,132.5T331,1453t164.5-49T556,1272q0-84-60.5-133.5T331,1089Z"/>
      <glyph unicode="j" glyph-name="gid39" horiz-adv-x="684" d="M546,251q0-57 18-109.5T604.5,38t40-102T662-170q0-135-100.5-215.5T288-466q-125,0-208.5,35T-46-338T-88-213q0,86 46.5,129T84-41q75,0 120-49.5T249-220v-72q0-39 21-58.5T329-370q41,0 63.5,23.5T415-276q0,48-26,93T325-93.5t-76,89T185,86t-26,95V695q0,30-8,43t-25,17l-30,6q-20,6-29,18t-9,30q0,22 12,34.5T115,869l216,82q50,19 78.5,26.5T461,985q43,0 64-23t21-59V251ZM330,1089q-104,0-164.5,49.5T105,1272t60.5,132.5T330,1453t164.5-49T555,1272q0-84-60.5-133.5T330,1089Z"/>
      <glyph unicode="k" glyph-name="gid40" horiz-adv-x="1297" d="M131,0Q95,0 79,14.5T63,54q0,19 9.5,32.5T103,109l27,10q16,7 22.5,22.5T159,195V1214q0,30-8,42.5T126,1274l-30,6q-20,6-29,18t-9,30q0,22 12,34.5t45,25.5l216,82q47,18 76,26t56,8q41,0 62-23t21-59V195q0-38 7-53t22-23l25-11q32-17 32-50q0-58-70-58H131ZM434,434L819,745q34,28 30.5,56T808,844l-28,10q-19,9-26.5,20.5T746,904q0,25 18,39.5T812,958h381q31,0 49-14t18-37q0-24-14.5-40T1184,839q-54-15-99.5-40T974,722L480,333L434,434ZM832,714l361-536q17-25 31.5-38t36.5-26q22-14 34.5-30T1308,50q0-23-17.5-36.5T1242,0H786q-26,0-42,14.5T728,53q0,16 6.5,27T757,100l23,10q19,8 20.5,24.5T778,186L580,485L832,714Z"/>
      <glyph unicode="l" glyph-name="gid41" horiz-adv-x="685" d="M546,1422V195q0-38 7-53.5T575,119l27-10q22-9 31.5-22.5T643,54q0-25-16.5-39.5T573,0H132Q96,0 79.5,14.5T63,54q0,19 9.5,32.5T104,109l26,10q16,7 22.5,22.5T159,195V1214q0,30-8,42.5T126,1274l-30,6q-20,6-29,18t-9,30q0,22 12,34.5t45,25.5l216,82q50,19 78.5,26.5T460,1504q43,0 64.5-23t21.5-59Z"/>
      <glyph unicode="m" glyph-name="gid42" horiz-adv-x="1988" d="M546,903V195q0-38 7-53t22-23l25-11q32-17 32-50q0-58-70-58H132Q96,0 79.5,14.5T63,54q0,19 9.5,32.5T103,109l27,10q16,7 22.5,22.5T159,194V695q0,30-8,43t-25,17l-30,6q-20,6-29,18t-9,30q0,22 12,34.5T115,869l216,82q47,18 76,26t56,8q41,0 62-23t21-59ZM512,665l-56,59l33,30Q625,883 724.5,935T910,987q131,0 209.5-86.5T1198,673V195q0-38 7-53.5t23-22.5l24-11q32-17 32-50q0-58-71-58H796q-71,0-71,58q0,33 32,50l25,11q16,8 22.5,23.5T811,196V618q0,69-30.5,104T693,757q-36,0-73.5-15T548,697l-36-32Zm652,0l-56,59l33,30q133,125 228,179t177,54q127,0 199-87t86-228l48-477q4-37 9-53t20-23l26-10q21-9 31-22.5T1975,54q0-25-16.5-39.5T1905,0H1471q-70,0-70,58q0,33 32,50l25,11q16,8 24.5,23.5T1487,196l-42,422q-7,69-34,104t-82,35q-31,0-64-16t-65-44l-36-32Z"/>
      <glyph unicode="n" glyph-name="gid44" horiz-adv-x="1344" d="M546,903V195q0-38 7-53t22-23l25-11q32-17 32-50q0-58-70-58H132Q96,0 79.5,14.5T63,54q0,19 9.5,32.5T103,109l27,10q16,7 22.5,22.5T159,195V695q0,30-8,43t-25,17l-30,6q-20,6-29,18t-9,30q0,22 12,34.5T115,869l216,82q47,18 76,26t56,8q41,0 62-23t21-59ZM512,665l-56,59l33,30Q625,879 722,933t181,54q127,0 199-87t85-227l48-478q4-37 9-53t21-23l26-10q21-9 31-22.5T1332,54q0-25-16.5-39.5T1262,0H828q-71,0-71,58q0,33 32,50l25,11q16,8 24.5,23.5T844,195L802,618q-7,70-34,104.5T686,757q-33,0-69-15.5T548,697l-36-32Z"/>
      <glyph unicode="o" glyph-name="gid46" horiz-adv-x="1229" d="M621,986q166,0 290-64t193-179t69-267q0-141-72-255.5T902,39.5T607-27Q441-27 317,38T124,218T55,483q0,144 72,258T326.5,920.5T621,986Zm73-881q45,10 70.5,56T791,293.5T765,509q-25,126-60,206T626.5,829.5T535,854q-46-9-71-55.5t-26-132T463,450q25-125 60.5-205T602,130.5T694,105Z"/>
      <glyph unicode="p" glyph-name="gid47" horiz-adv-x="1306" d="M525,903V808l18-34V-271q0-38 6.5-53.5T572-347l30-10q22-9 31.5-22.5T643-412q0-25-16.5-39.5T574-466H129q-37,0-53.5,14.5T59-412q0,19 10,32.5T100-357l27,10q16,7 22.5,22.5T156-271V695q0,30-8.5,43T123,755l-30,6q-21,6-29.5,18T55,809q0,22 12,33.5T112,868l198,83q45,19 74.5,26.5T438,985q44,0 65.5-23T525,903ZM473,635l-63,64q84,135 189,211.5T838,987q119,0 212.5-61T1198,758t54-247q0-162-66-283T1006.5,40T750-27Q630-27 540,25T386,182l97,68q46-69 92-99.5T675,120q52,0 92,35.5t62.5,113T852,471q0,116-23,187.5t-62,105T677,797q-59,0-109.5-38.5T473,635Z"/>
      <glyph unicode="q" glyph-name="gid48" horiz-adv-x="1278" d="M734-466q-37,0-53.5,14.5T664-412q0,19 9.5,32.5T705-357l30,10q16,7 22.5,22.5T764-271V878l157,66q68,24 101.5,32.5T1078,985q35,0 54.5-17.5T1152,917V-271q0-38 6.5-53.5T1181-347l26-10q22-9 31.5-22.5T1248-412q0-25-16.5-39.5T1179-466H734ZM897,261Q814,127 708.5,50T469-27Q350-27 256.5,33.5T109,201T55,449q0,162 66,283T301,920t257,67q120,0 210-52.5T921,778l-97-69q-46,70-92,100.5T633,840q-52,0-92.5-35.5T478,691.5T456,488q0-115 22.5-186.5t62-105.5T631,162q60,0 109.5,39T834,325l63-64Z"/>
      <glyph unicode="r" glyph-name="gid49" horiz-adv-x="1038" d="M508,542q0,150 40.5,249t107,147.5T800,987q103,0 158-61t55-182T964.5,566T839,509q-79,0-118.5,40.5T681,662v40q-1,27-12.5,41.5T633,758t-43.5-20.5t-31.5-65T546,555l-38-13Zm14,361l24-215V195q0-33 10.5-47T601,127l79-14q27-6 40.5-19.5T734,55q0-26-18-40.5T663,0H132Q96,0 79.5,14.5T63,54q0,19 9.5,32.5T103,109l27,10q16,7 22.5,22.5T159,194V692q0,30-8,42.5T126,752l-30,6q-20,6-29,18t-9,30q0,21 12.5,34.5T115,866l210,79q64,26 92.5,33t44.5,7q26,0 40-18.5T522,903Z"/>
      <glyph unicode="s" glyph-name="gid50" horiz-adv-x="1042" d="M527,89q60,0 90,27.5T647,183q0,24-9.5,45t-42,38.5T496,296q-177,31-270.5,82T97.5,497.5T63,651q0,156 109.5,245.5T493,986q74,0 118.5-11.5t72-23.5T732,939q24,0 37.5,12T797,975t39,12q20,0 35.5-13T897,926l55-185q15-47 9-75.5T926,626t-50.5-0.5T833,666q-45,71-96,116T631.5,849T517,871q-71,0-106.5-27.5T375,769q0-28 14.5-49.5T448,680t129-35q142-26 224.5-73.5T920,455t36-161q0-97-51.5-169.5T763,12.5T558-27q-72,0-113.5,12.5t-68,25T325,23T282,10.5t-35-25T207-27q-20,0-33.5,14.5T153,37L120,215q-8,48-1,71.5T152,321q28,12 49.5-1T246,275q68-102 139.5-144T527,89Z"/>
      <glyph unicode="t" glyph-name="gid52" horiz-adv-x="854" d="M103,838L67,852q-22,8-32.5,21T24,904q0,26 17.5,40T87,958h57q20,0 36,9.5t40,34.5l152,163q29,31 55,45.5t50,14.5q26,0 41-17t15-50V343q0-73 26-110.5T633,195q37,0 57.5,17.5t33,40.5T749,294t36,18q18,1 29-12t11-44q-1-78-46.5-142T653,12T470-26Q316-26 231.5,48.5T147,275V776q0,27-10.5,40T103,838Zm294-8V958H753q29,0 45.5-12T815,911q0-34-33.5-57.5T671,830H397Z"/>
      <glyph unicode="u" glyph-name="gid53" horiz-adv-x="1322" d="M792,186v25l-13,1V695q0,30-8.5,42.5T745,755l-30,6q-20,6-29,18t-9,30q0,22 12,34.5T734,869l217,82q46,18 75,26t56,8q41,0 62.5-23t21.5-59V195q0-38 6.5-53.5T1195,119l26-10q22-9 31.5-22.5T1262,54q0-25-16.5-39.5T1193,0H956Q890,0 841,54.5T792,186ZM138,287V695q0,30-8.5,42.5T105,755l-30,6q-20,6-29,18t-9,30q0,22 12,34.5T94,869l216,82q49,19 77.5,26.5T438,985q44,0 65.5-23T525,903V342q0-70 32.5-105T648,202q35,0 74.5,15T796,262l37,32l55-58l-32-30Q719,76 617.5,24.5T431-27Q300-27 219,59.5T138,287Z"/>
      <glyph unicode="v" glyph-name="gid54" horiz-adv-x="1151" d="M650-2H503q-38,0-66.5,19.5T391,79L107,775q-14,36-23.5,48.5T62,840L38,850q-20,9-28.5,21.5T1,904q0,25 18,39.5T68,958H584q66,0 66-54q0-20-11-32.5T603,852l-30-8q-41-11-50-37t15-89L744,181l-87-53L871,717q24,64 15,90t-50,37l-30,8q-24,7-35,19.5T760,904q0,25 17.5,39.5T826,958h262q31,0 48.5-14.5T1154,904q0-18-8.5-31T1112,852l-22-7q-18-7-34.5-35.5T1013,715L764,71q-18-43-48.5-58T650-2Z"/>
      <glyph unicode="w" glyph-name="gid55" horiz-adv-x="1747" d="M612-2H473q-39,0-68,18.5T360,80L107,775q-12,37-22.5,49T62,841l-24,9q-20,9-28.5,21.5T1,904q0,25 18,39.5T68,958H555q30,0 48-14.5T621,904q0-20-11-32.5T574,852l-29-8q-25-7-30-29.5T533,727L710,200l-93-74L853,770l111-72L725,71q-18-43-48.5-58T612-2Zm669,0H1148q-38,0-68,19t-45,63L793,777q-13,36-23,47.5T748,841l-24,9q-20,9-28.5,21.5T687,904q0,54 67,54h474q66,0 66-54q0-20-10.5-33.5T1254,854l-45-8q-23-4-26-29.5t17-87.5l170-529l-85-75l182,577q24,76 21,105.5T1455,844l-29,8q-24,7-35.5,19.5T1379,904q0,25 18,39.5t48,14.5h238q31,0 48.5-14.5T1749,904q0-18-8.5-31T1707,852l-22-7q-18-7-33.5-35.5T1613,715L1394,72q-15-43-46.5-58.5T1281-2Z"/>
      <glyph unicode="x" glyph-name="gid56" horiz-adv-x="1173" d="M436,527l101-51L360,240q-32-44-26.5-76.5T372,117l23-9q19-9 28.5-21T433,56q0-25-18-40T366,1H89Q58,1 40.5,16T23,56q0,19 10,32t37,28q33,14 59,35t55.5,54T254,290L436,527ZM605,775L771,542l16-18l242-324q31-40 49.5-59t38.5-30q20-12 29.5-24.5T1156,55q0-25-18-40T1087,0H584q-33,0-51,15T515,56q0,19 8,30.5T548,104l24,8q25,8 26,24.5T577,183L409,421l-16,20L166,766q-24,35-46,51T74,843q-25,10-34,23.5T31,902q0,26 18.5,41T100,958H591q31,0 49-14.5T658,903q0-17-6.5-29T631,853l-23-13q-20-10-20.5-24.5T605,775ZM731,435L630,485L805,718q34,45 28.5,78T793,843l-22,9q-20,9-29.5,21.5T732,903q0,26 18.5,40.5T800,958h276q32,0 49.5-14.5T1143,903q0-18-10.5-31.5T1096,844q-49-21-86.5-59.5T911,669L731,435Z"/>
      <glyph unicode="y" glyph-name="gid57" horiz-adv-x="1191" d="M776,186L565-165L121,770q-18,37-35.5,52.5T38,850q-20,9-28.5,21.5T1,904q0,25 18,39.5T68,958H584q30,0 48-14.5T650,904q0-20-11-32.5T603,852l-30-8q-41-11-48-37.5T545,717L776,186ZM560-105l37,89l49,92L895,699q25,63 18,94.5T863,838l-35,10q-24,8-35.5,22T781,904q0,25 18,39.5T847,958h281q31,0 49-14.5t18-39.5q0-17-10-30t-33-25q-39-17-64.5-44.5T1037,714L718-64Q652-225 597.5-313T479-435T321-469q-137,0-217.5,73.5T23-212q0,79 40,124T169-43T269.5-80.5T330-181l19-45q12-34 30.5-53T419-298q20,0 38,12.5t42,54T560-105Z"/>
      <glyph unicode="z" glyph-name="gid58" horiz-adv-x="1038" d="M956,801L439,41l-48,71H561q68,0 113.5,15t84,56T843,301l36,61q16,27 37.5,35t44.5,3q27-5 37.5-23t4.5-48L944,28q-6-30-21.5-43T882-28q-28,0-56.5,14T739,0H145Q92,0 70,14.5T48,58q0,19 9,42.5T89,157L605,915l64-69H470q-56,0-95-11.5T303.5,791T236,699l-45-78q-13-22-32-30.5T113,589q-24,7-35.5,27T73,667l52,263q6,29 21.5,43.5T187,988q28,0 56.5-15T329,958H899q54,0 76-14.5T997,900q0-19-9-42t-32-57Z"/>
      <glyph unicode="{" glyph-name="gid85" horiz-adv-x="843" d="M421,612q0-31 36-31q113,0 178-41.5T700,425q0-49-26.5-96.5t-61.5-95t-61.5-95T524,43q0-86 43.5-133T692-137h48q73,0 73-60q0-24-19.5-41T727-255H627q-143,0-236,36T252.5-121T207,19q0,84 35,149.5t81,117T404.5,381T440,467q0,39-24,60t-68,21q-34,0-53-14.5t-38.5-29T199,490q-47,0-75.5,36T95,612q0,49 28.5,85.5T199,734q38,0 57.5-14.5T295,690t53-15q44,0 68,22t24,60q0,42-35.5,85.5T323,938t-81,117.5T207,1205q0,79 45.5,140.5T391,1443t236,36H727q47,0 66.5-17t19.5-41q0-61-73-61H692q-81,0-124.5-46.5T524,1181q0-48 26.5-95.5t61.5-95t61.5-95T700,799q0-72-65-114T457,643q-36,0-36-31Z"/>
      <glyph unicode="|" glyph-name="gid89" horiz-adv-x="631" d="M247,614q0,75-7,180.5T223,1015t-17.5,220T198,1414q0,58 29.5,90.5T315,1537t87.5-32.5T432,1414q0-57-5-136.5T414.5,1108T400,927T388,755t-5-141q0-74 7-180t17-221T424.5-7T432-186q0-57-29.5-89.5T315-308t-87.5,32.5T198-186q0,58 5,137.5T215.5,121T230,302t12,171.5T247,614Z"/>
      <glyph unicode="}" glyph-name="gid86" horiz-adv-x="843" d="M422,612q0,31-36,31q-113,0-178,41.5T143,799q0,49 26.5,96.5t61.5,95t61.5,95T319,1181q0,86-43.5,133T151,1361H103q-73,0-73,60q0,24 19.5,41t66.5,17H216q143,0 236-36t138.5-98T636,1205q0-84-35-149.5t-81-117T438.5,843T403,757q0-39 24-60t68-21q34,0 53,14.5t38.5,29T644,734q47,0 75.5-36T748,612q0-49-28.5-85.5T644,490q-38,0-57.5,14.5T548,534t-53,15q-44,0-68-22t-24-60q0-42 35.5-85.5T520,286t81-117.5T636,19q0-79-45.5-140.5T452-219T216-255H116q-47,0-66.5,17T30-197q0,61 73,61h48q81,0 124.5,46.5T319,43q0,48-26.5,95.5t-61.5,95t-61.5,95T143,425q0,72 65,114t178,42q36,0 36,31Z"/>
      <glyph unicode="~" glyph-name="gid118" horiz-adv-x="1279" d="M886,509q-65,0-128,30T634.5,607T516,674.5T403,704q-62,0-105-37T242,559q-9-26-29-40t-45-14q-70,0-70,81q0,76 39.5,141.5T244,832.5T393,872t151-29.5t127.5-68t109.5-68T877,677q62,0 105,33t52,102q12,32 32.5,47.5T1111,875q71,0 71-82q0-80-40-144T1035,547T886,509Z"/>
      <glyph unicode="&#xa0;" glyph-name="gid2" horiz-adv-x="414"/>
      <glyph unicode="&#xa1;" glyph-name="gid64" horiz-adv-x="641" d="M327-352q-121,0-177.5,55T93-151q0,28 5,61.5T113-17L249,562q11,45 28.5,66.5T327,650t49-21.5T406,562L541-17q10-40 15-73t5-61q0-91-57.5-146T327-352Zm1,1529q62,0 112-31.5t79.5-83.5T549,949q0-62-29.5-113T440,754T328,723q-63,0-113.5,31t-80,82T105,949q0,61 29.5,113t80,83.5T328,1177Z"/>
      <glyph unicode="&#xa2;" glyph-name="gid135" horiz-adv-x="1082" d="M606,503q0-95 2-175.5T612,180t4.5-122t4-99t1.5-78q0-26-13.5-40T572-173q-20,0-34,13.5T524-116q0,33 1.5,76t4,97.5T534,179t3.5,148T539,503q0,86-2,159.5T533,797t-4,110.5t-3.5,89T524,1066q0,26 14,40t38,14q20,0 33-13.5t13-42.5q0-30-1.5-69t-4-88.5t-5-110t-4-134T606,503Zm421,181q0-72-43.5-119.5T866,517q-76,0-117.5,50.5T707,704v56q0,54-35,84.5T577,875q-51,0-94.5-33.5t-69-99T388,580q0-119 38.5-199T531,259.5T680,218q82,0 138,32.5T918,340q20,15 31,21t22,5q16-1 25.5-11.5T1005,320q-5-90-62-162.5T788.5,43T563,1Q417,1 301.5,56T120,212.5T54,455q0,147 66.5,262.5T309,899.5T594,966q136,0 233-37.5T975.5,827T1027,684Z"/>
      <glyph unicode="&#xa3;" glyph-name="gid134" horiz-adv-x="1323" d="M496,361l-94,7q37,27 53.5,55.5T472,484q0,46-31,92t-76.5,93.5T272.5,770T195,883.5T164,1015q0,123 64.5,217t196,147T757,1432q167,0 275-51t160.5-135.5T1245,1060q0-99-50-155t-141-56q-92,0-150,59.5T846,1074v125q0,76-30,114t-85,38q-71,0-105-63.5T592,1084q0-58 6-116t14-116t13.5-115T630,627q-1-82-29.5-153T496,361ZM68,155q0,74 35.5,134.5t105,97T379,423q79,0 148-12t133.5-28t127-28T915,343q91,0 143,28t81,89q10,17 27.5,28t37.5,10q19-1 32.5-14.5T1250,444q-5-167-50-271.5t-124-154T892-31q-65,0-121,21T668.5,63T581,208q-22,39-38,55.5T500,280q-19,0-32-20t-16-70q-2-77-26-126T357-8T247-31q-90,0-134.5,52T68,155Zm67,495q0,17 13.5,28T180,690l229,13l83-89H181q-20,0-33,10t-13,26Zm431-36l-4,76H917q19,0 30-11t11-27q0-38-41-38H566Z"/>
      <glyph unicode="&#xa4;" glyph-name="gid130" horiz-adv-x="1191" d="M144,325q-27-22-31-54t23-57q26-24 60-19.5T255,222L433,403L320,506L144,325Zm-8,796q-27-24-23-55.5t31-55.5L320,829L433,933L255,1114q-25,23-59,27t-60-20Zm921,2q-25,25-60,21t-61-28L758,936L871,833l179,181q25,24 30,55t-23,54Zm0-910q28,23 23,53.5T1050,321L872,502L759,399L936,219q26-24 61-27.5t60,21.5ZM595,312q105,0 191,44T922.5,481T973,670T922.5,858t-136,123.5T596,1025q-103,0-188.5-43.5T271.5,858T221,670t50.5-189T407,356t188-44Zm2,114q-69,0-119.5,33T400,547T373,670t27,122.5T477.5,880T597,913t120-33t79-87.5T824,670T796,547t-79-88T597,426Z"/>
      <glyph unicode="&#xa5;" glyph-name="gid132" horiz-adv-x="1408" d="M884,442L561,392L179,1187q-18,34-30,50t-39,28l-28,11q-22,9-32.5,26T39,1339q0,29 19,45t60,16H636q40,0 59.5-16t19.5-45q0-47-50-67l-31-9q-43-16-43.5-34.5T608,1174L879,548L756,482l295,647q20,47 9.5,82.5T1002,1265l-30,11q-17,7-28.5,23T932,1339q0,29 18.5,45t58.5,16h286q40,0 59.5-16t19.5-45q0-22-10-35.5t-31-25.5l-15-9q-19-10-36.5-25.5t-37-45.5t-45.5-85L884,442ZM511,522l402,4V205q0-21 12.5-37T964,142l43-14q49-22 49-67q0-28-19-44.5T978,0H446q-40,0-59,16.5T368,61q0,45 49,67l44,14q29,12 39.5,28T511,205V522ZM170,478q0,19 12,30t30,11h997q20,0 31.5-11t11.5-30q0-40-43-40H210q-40,0-40,40ZM929,682l30,81h250q20,0 31.5-11t11.5-29q0-41-43-41H929ZM170,723q0,18 12,29t30,11H665l36-81H210q-40,0-40,41Z"/>
      <glyph unicode="&#xa6;" glyph-name="gid90" horiz-adv-x="684" d="M393,798q0-50-16.5-72T325,704q-31,0-49,23t-18,71q0,59-7.5,140.5T233,1108t-17.5,169T208,1414q0,58 29.5,90.5T325,1537q59,0 88-32.5t29-90.5q0-55-7-135.5t-17-169T400.5,939T393,798ZM258,429q0,50 16,72t51,22q32,0 50-23t18-71q0-59 7.5-140.5T418,119T435-50t7-137q0-58-29-90.5T325-310q-58,0-87.5,32.5T208-187q0,55 7.5,135.5t17.5,169T250.5,288T258,429Z"/>
      <glyph unicode="&#xa7;" glyph-name="gid140" horiz-adv-x="1222" d="M668,191l-8,79q87,2 134.5,41.5T842,414q0,47-23,82.5t-77,67T593,626Q425,676 328.5,739.5T192,882t-40,175q0,107 53,190t149.5,130.5T581,1425q68,0 115-12t78.5-24.5T831,1376q21,0 39,13.5t37.5,27T950,1430q26,0 43-16.5t32-58.5l79-289q10-28-3-48.5T1061,991q-49-11-76,37q-56,106-117.5,168.5t-124,89T620,1312q-68,0-108.5-40T471,1168q0-47 21.5-84t66-65T673,967q163-50 254-112.5T1054.5,717T1091,554q0-99-50.5-180T895,244T668,191ZM528,792l13-79q-74-2-119-42T377,568q0-52 29-88.5t89.5-66T647,353q161-48 252-111.5t128.5-140T1065-64q0-103-54-186T858-381T621-429q-60,0-103.5,10T445-398.5T399-388q-26,0-49-11.5t-43-23T267-434q-28,0-43.5,13.5T201-375L140-92q-12,49 38,63q24,7 45.5-2T263-66q56-98 110-152.5t109.5-77T596-318q73,0 116.5,39.5T756-176q0,44-17,77.5T681-38T568,13Q398,64 301.5,126.5t-136,140T126,438q0,98 48,176T312.5,739T528,792Z"/>
      <glyph unicode="&#xa8;" glyph-name="gid157" horiz-adv-x="914" d="M237,1047q-82,0-131,45T57,1213q0,79 49,124t131,45q84,0 132-45t48-124q0-75-48-120.5T237,1047Zm452,0q-82,0-131.5,45T508,1213q0,78 49.5,123.5T689,1382q85,0 133.5-45T871,1213q0-75-48.5-120.5T689,1047Z"/>
      <glyph unicode="&#xa9;" glyph-name="gid99" horiz-adv-x="1878" d="M940-143q191,0 351,62.5T1568,96t181,269t64,339q0,185-64,340t-181,268.5t-277,176T940,1551q-192,0-352-62.5T311,1312T130,1043.5T66,704q0-184 64-339T311,96T588-80.5T940-143Zm0,107Q720-36 552.5,59.5T291,322T197,704q0,216 94,382.5t261.5,262T940,1444q165,0 300.5-54.5t234.5-154T1628,1001t54-297t-54-297T1475,172.5t-234.5-154T940-36Zm465,541q-2-58-32.5-114.5t-88-103t-138-75T964,184q-158,0-276,65T505.5,431T441,701q0,148 68.5,264t186,182.5T958,1214q61,0 98.5-12t62.5-24t47-12q25,0 42,9.5t32,19t32,9.5q23,0 35-12t18-42l55-251q5-26-8.5-42.5T1334,835q-28-7-48,4t-31,42q-41,126-101,171t-122,45q-60,0-99.5-42t-59-119T854,753q0-122 30-204t85.5-122.5T1100,386q69,0 121.5,30t81.5,79q15,23 28,34.5t24,15.5t21,2q29-7 29-42Z"/>
      <glyph unicode="&#xaa;" glyph-name="gid138" horiz-adv-x="1078" d="M126,1199q0,53 51,106.5T329.5,1395T582,1431q165,0 245.5-65.5T908,1182V776q0-18 8-29t26-11q14,0 21.5,8T977,760t15,8q16,0 25-10.5t9-26.5q0-32-25-68t-74-61.5T805,576q-88,0-144,38t-56,98l-23,20v536q0,38-21,60t-56,22q-32,0-52-16t-20-42v-67q0-63-45.5-101.5T261,1085q-66,0-100.5,29.5T126,1199ZM608,934q-21,12-42,17.5T520,957q-47,0-74.5-32T418,836t27.5-87T517,719q30,0 56.5,14T615,768l20-62q-42-62-120.5-96T347,576q-115,0-186.5,57.5T89,779q0,113 104.5,179.5T488,1025q48,0 85-7t62-21l-27-63Z"/>
      <glyph unicode="&#xab;" glyph-name="gid77" horiz-adv-x="1299" d="M84,490q0,28 18.5,59T158,609q56,45 112,89.5t108.5,86t98,76.5T555,921q23,17 40,19.5t30-8.5q13-10 11-27.5T622,863q-27-49-62.5-109.5T478,615.5T370,437V543q61-99 107.5-176.5t82-138T622,117q12-23 14-41T625,48t-30-8T555,60q-33,25-78.5,60t-98,76T270,282T158,371q-37,30-55.5,61T84,490Zm573,0q0,28 18.5,59T731,609q56,45 112,89.5t108.5,86t98,76.5t78.5,60q23,17 40,19.5t30-8.5q13-10 11-27.5T1195,863q-27-49-62.5-109.5t-81.5-138T943,437V543q61-99 107.5-176.5t82-138T1195,117q12-23 14-41t-11-28t-30-8t-40,20q-33,25-78.5,60t-98,76T843,282T731,371q-37,30-55.5,61T657,490Z"/>
      <glyph unicode="&#xac;" glyph-name="gid127" horiz-adv-x="1132" d="M110,780q0,37 24,57.5T189,858H909q43,0 70-22t27-66V442q0-29-22-50t-63-21q-40,0-63,21.5T835,443V727l22-22H188q-31,0-54.5,19.5T110,780Z"/>
      <glyph unicode="&#xad;" glyph-name="gid92" horiz-adv-x="802" d="M679,677q89,0 54-94l-29-83q-15-44-36.5-59.5T611,425H123q-89,0-54,93l29,83q15,45 36.5,60.5T191,677H679Z"/>
      <glyph unicode="&#xae;" glyph-name="gid100" horiz-adv-x="1448" d="M721,250q151,0 277.5,48.5t219,136t143,205.5T1411,898q0,137-51,252.5t-144,200t-219,131T721,1528q-148,0-273.5-46.5T230,1350.5t-142.5-200T37,898q0-140 50-258T228.5,434.5t217-136T721,250Zm0,92q-165,0-292.5,72.5T229,613T157,898q0,158 73,279.5t200.5,190T721,1436q164,0 292.5-69t203-191T1291,898q0-159-73-285T1016.5,414.5T721,342Zm360,658q0-66-46.5-114.5T910,823q-40-7-69-17.5T768,795q-53,0-91,13t-64,29l-2,70q31-22 56-29t62-7q54,0 83,30.5T841,996q0,74-33.5,121.5T719,1165H670V669q0-18 4-25.5T688,631l17-8q12-8 15-15t3-18q0-32-42-32H412q-44,0-44,32q0,23 25,35l19,8q11,5 16.5,12t5.5,24v464q0,14-5.5,22T414,1167l-21,8q-25,10-25,35q0,32 45,32H720q175,0 268-68t93-174ZM742,823l223,25l96-187q9-15 16.5-22.5T1095,627q14-7 19.5-14t5.5-18q0-17-12-27t-33-10H836q-42,0-42,32q0,15 12,25l8,4q9,3 10,12.5T819,655L742,823Z"/>
      <glyph unicode="&#xaf;" glyph-name="gid156" horiz-adv-x="840" d="M57,1198q0,47 20.5,68.5T136,1288H656q38,0 58.5-21t20.5-68q0-48-20.5-69.5T656,1108H136q-38,0-58.5,22T57,1198Z"/>
      <glyph unicode="&#xb0;" glyph-name="gid137" horiz-adv-x="792" d="M396,1431q90,0 159.5-38.5t109-107T704,1127q0-86-40-152T554,872T396,835q-89,0-159,38.5T127,979T87,1132q0,84 39,152t108.5,107.5T396,1431Zm0-113q-77,0-123.5-54T226,1132q0-81 48-132t122-51q72,0 120.5,50.5T565,1129q0,83-47,136t-122,53Z"/>
      <glyph unicode="&#xb1;" glyph-name="gid121" horiz-adv-x="1138" d="M117,838q0,34 20.5,53.5T185,911H969q27,0 46.5-19.5T1035,838t-19.5-53T969,766H184q-26,0-46.5,19T117,838ZM571,396q-34,0-53.5,20.5T498,464v784q0,27 19.5,46.5T571,1314t53-19.5t19-46.5V463q0-26-19-46.5T571,396ZM116,168q0,34 20.5,53.5T184,241H968q27,0 46.5-19.5T1034,168t-19.5-53T968,96H183q-26,0-46.5,19T116,168Z"/>
      <glyph unicode="&#xb2;" glyph-name="gid145" horiz-adv-x="786" d="M175,854l-52,28l117,59q70,33 112,71t61,86.5T432,1212q0,92-15,128.5T369,1377q-35,0-48-24t-13-64v-66q0-51-34.5-82T182,1110t-90,30t-33,84q0,80 81,144t252,64q162,0 239-60.5T708,1215q0-52-28-96.5T590,1034T425,954L175,854ZM47,769q0,71 62.5,107.5T303,913q50,0 96-9t88-18.5t79-9.5q30,0 50.5,13T649,937q5,16 17.5,22t25.5,5q50-2 43-56q-10-132-62.5-189T534,662q-71,0-114.5,28T343,782q-17,25-25,36.5T300,830q-12,0-18-14.5T275,771q-2-56-30-82.5T160,662q-52,0-82.5,29T47,769Z"/>
      <glyph unicode="&#xb3;" glyph-name="gid146" horiz-adv-x="727" d="M357,1047l-22,18q18,5 40,8t50,3q117,0 191.5-53T691,877q0-104-91.5-165.5T351,650q-150,0-225.5,51T50,828q0,50 37.5,83T179,944q56,0 86.5-29.5T296,837V778q0-28 15.5-48.5T355,709q34,0 51.5,32.5T424,850q0,78-23.5,112.5T340,997H297q-22,0-36.5,9.5T246,1036q0,14 7.5,26.5T277,1086l239,190l9-67H248q-47,0-57-34l-11-40q-3-16-15.5-25.5T129,1100t-37.5,11T79,1144l21,206q2,23 21,36.5t50,13.5H641q27,0 42.5-12t15.5-32q0-14-12.5-27.5T646,1297L357,1047Z"/>
      <glyph unicode="&#xb4;" glyph-name="gid152" horiz-adv-x="541" d="M148,1325q33,81 79.5,126T347,1486q66-7 98.5-53.5T471,1335q-7-57-43.5-96T322,1164L145,1055q-20-8-41-7.5T70,1060q-15,14-12,31t13,35l77,199Z"/>
      <glyph unicode="&#xb5;" glyph-name="gid142" horiz-adv-x="1327" d="M137,300h58q0-125 23-218T270-82.5T321.5-211T344-319q0-69-47-113T182-476q-71,0-118,45.5T17-306q0,45 18,104T77-69T119,97t18,203Zm665-4l55-59l-45-42Q682,77 583.5,26T403-25Q284-25 210,53T136,269V808q0,39 21,65t56,38l137,48q37,12 60,18t49,6q27,0 42-17t15-42V343q0-70 29-104.5T626,204q34,0 68.5,13T765,262l37,34ZM1036-25Q922-25 855.5,26.5T786,180l-13,27V807q0,39 21,65.5T851,911l136,48q37,12 60,18t50,6q26,0 41.5-17t15.5-42V212q0-21 10-34t30-13q16,0 25.5,9t16.5,18.5t17,9.5q18,0 28.5-11.5T1292,161q0-39-28.5-82T1178,5.5T1036-25Z"/>
      <glyph unicode="&#xb6;" glyph-name="gid141" horiz-adv-x="1451" d="M989,233v932q0,36-19,59t-65,23q-44,0-63.5-25T822,1165V233q0-31 19.5-55.5T905,153q46,0 65,23t19,57ZM1298,0H465q-26,0-43,14.5T405,53q0,31 16,50t41,26l64,17q33,10 49,25.5T591,210V570q-29-5-56-10t-58-5q-207,0-326.5,108T31,954q0,135 61,235t172,155.5T524,1400h780q27,0 49.5-15t22.5-45q0-24-12-39.5t-31-24.5l-54-21q-29-12-44-30.5t-15-46.5V221q0-27 12.5-46t39.5-29l54-17q24-8 37.5-23T1377,65q0-33-26.5-49T1298,0Z"/>
      <glyph unicode="&#xb7;" glyph-name="gid96" horiz-adv-x="637" d="M317,286q-61,0-111.5,31.5t-80,83.5T96,514q0,62 29.5,113t80,82T317,740q64,0 114.5-31T511,627t29-113q0-61-29-113t-79.5-83.5T317,286Z"/>
      <glyph unicode="&#xb8;" glyph-name="gid159" horiz-adv-x="627" d="M262,13h93L276-140l-64,15q22,6 48,8.5t65,2.5q104,0 159-42.5T539-274q0-82-65.5-130.5T286-453q-101,0-161,33T58-344q-1,20 11.5,33T99-298q16,2 28-4t26-14q21-22 44-32t50-10q70,0 70,87q0,38-20.5,58T234-193H208q-25,0-31.5,15t3.5,36L262,13Z"/>
      <glyph unicode="&#xb9;" glyph-name="gid144" horiz-adv-x="641" d="M121,1290h31q21,0 30-9.5t9-37.5V825q0-21-8.5-32.5T157,777l-56-13q-42-8-42-39q0-39 54-39H540q53,0 53,39q0,29-40,39l-51,13q-15,5-23,16t-8,32v568q0,45-51,45q-12,0-24-3.5T367,1424q-36-22-78.5-34T174,1378H125q-26,0-41.5-12.5T68,1334q0-20 13-32t40-12Z"/>
      <glyph unicode="&#xba;" glyph-name="gid139" horiz-adv-x="1075" d="M544,1428q139,0 244-54.5T952,1222t59-225q0-122-61-218T781,628T531,573q-139,0-244,54T123,778T64,1003q0,120 61,216.5T294,1372t250,56Zm60-743q35,7 55,48t21.5,115T661,1026q-22,106-52,173t-65,96.5T473,1317q-33-7-53.5-47.5t-22-113.5T417,976q22-105 52-172.5T533.5,707T604,685Z"/>
      <glyph unicode="&#xbb;" glyph-name="gid78" horiz-adv-x="1299" d="M1216,492q0-28-18.5-59T1142,373q-56-45-112-89.5t-108.5-86t-98-76.5T745,61q-23-17-40-19.5T675,50q-13,10-11,27.5T678,119q27,49 62.5,109.5t81.5,138T930,545V439q-61,99-107.5,176.5t-82,138T678,865q-12,23-14,41t11,28t30,8t40-20q33-25 78.5-60t98-76T1030,700t112-89q37-30 55.5-61t18.5-58Zm-573,0q0-28-18.5-59T569,373q-56-45-112-89.5t-108.5-86t-98-76.5T172,61q-23-17-40-19.5T102,50Q89,60 91,77.5T105,119q27,49 62.5,109.5t81.5,138T357,545V439q-61,99-107.5,176.5t-82,138T105,865q-12,23-14,41t11,28t30,8t40-20q33-25 78.5-60t98-76T457,700t112-89q37-30 55.5-61T643,492Z"/>
      <glyph unicode="&#xbc;" glyph-name="gid149" horiz-adv-x="1624" d="M161,1290h31q21,0 30-9.5t9-37.5V825q0-21-8.5-32.5T197,777l-56-13q-42-8-42-39q0-39 54-39H580q53,0 53,39q0,29-40,39l-51,13q-15,5-23,16t-8,32v568q0,45-51,45q-12,0-24-3.5T407,1424q-36-22-78.5-34T214,1378H165q-26,0-41.5-12.5T108,1334q0-20 13-32t40-12Zm977-994q0,16 5.5,27.5T1160,343l166,142q17,13 28,17.5t22,4.5q31,0 31-32l2-337q0-21 8-31t23-16l39-12q18-6 29.5-15.5T1520,39q0-38-54-38H1070q-53,0-53,38q0,30 41,40l46,12q16,5 25,15.5t9,31.5V296ZM997,418q32,25 47,48t15,44q0,25-14.5,45.5t-29.5,44T1000,655q0,51 41.5,86.5T1167,777q70,0 112-32t42-85q0-37-23-78.5T1195,474L888,220l-19,33h612q24,0 37.5-8t13.5-27q0-39-51-39H848q-26,0-40,11.5T794,222q0,11 7.5,24.5T832,275L997,418ZM878,773q-20-24-35-30t-38,6q-18,10-20.5,26.5T794,818q15,30 37,76.5t48.5,101T933,1107t53,108t47,91.5t34,60.5q28,44 67,56t85-14q45-25 52.5-62t-20.5-80q-12-20-38.5-56.5t-61-83t-73-97.5t-76-100t-70-89.5T878,773ZM671,624q20,23 36,29.5t38-4.5q19-11 20.5-27.5T754,579q-14-30-36-76.5T669.5,401T616,288.5t-53-109T516,88T482,28q-28-43-67-54.5T330-13q-44,24-52,61t21,80q12,20 38,56.5t61,84t73.5,98t76,99.5T617,556.5T671,624Z"/>
      <glyph unicode="&#xbd;" glyph-name="gid150" horiz-adv-x="1667" d="M166,1290h31q21,0 30-9.5t9-37.5V825q0-21-8.5-32.5T202,777l-56-13q-42-8-42-39q0-39 54-39H585q53,0 53,39q0,29-40,39l-51,13q-15,5-23,16t-8,32v568q0,45-51,45q-12,0-24-3.5T412,1424q-36-22-78.5-34T219,1378H170q-26,0-41.5-12.5T113,1334q0-20 13-32t40-12ZM878,773q-20-24-35-30t-38,6q-18,10-20.5,26.5T794,818q15,30 37,76.5t48.5,101T933,1107t53,108t47,91.5t34,60.5q28,44 67,56t85-14q45-25 52.5-62t-20.5-80q-12-20-38.5-56.5t-61-83t-73-97.5t-76-100t-70-89.5T878,773ZM671,624q20,23 36,29.5t38-4.5q19-11 20.5-27.5T754,579q-14-30-36-76.5T669.5,401T616,288.5t-53-109T516,88T482,28q-28-43-67-54.5T330-13q-44,24-52,61t21,80q12,20 38,56.5t61,84t73.5,98t76,99.5T617,556.5T671,624Zm349-452l-52,28l117,59q70,33 112,71t61,86.5T1277,530q0,92-15,128.5T1214,695q-35,0-48-24t-13-64V541q0-51-34.5-82T1027,428t-90,30t-33,84q0,80 81,144t252,64q162,0 239-60.5T1553,533q0-52-28-96.5T1435,352t-165-80L1020,172ZM892,87q0,71 62.5,107.5T1148,231q50,0 96-9t88-18.5t79-9.5q30,0 50.5,13t32.5,48q5,16 17.5,22t25.5,5q50-2 43-56q-10-132-62.5-189T1379-20q-71,0-114.5,28T1188,100q-17,25-25,36.5T1145,148q-12,0-18-14.5T1120,89q-2-56-30-82.5T1005-20q-52,0-82.5,29T892,87Z"/>
      <glyph unicode="&#xbe;" glyph-name="gid151" horiz-adv-x="1697" d="M1211,295q0,16 5.5,27.5T1233,342l166,142q17,13 28,17.5t22,4.5q31,0 31-32l2-337q0-21 8-31t23-16l39-12q18-6 29.5-15.5T1593,38q0-38-54-38H1143q-53,0-53,38q0,30 41,40l46,12q16,5 25,15.5t9,31.5V295ZM1070,417q32,25 47,48t15,44q0,25-14.5,45.5t-29.5,44T1073,654q0,51 41.5,86.5T1240,776q70,0 112-32t42-85q0-37-23-78.5T1268,473L961,219l-19,33h612q24,0 37.5-8t13.5-27q0-39-51-39H921q-26,0-40,11.5T867,221q0,11 7.5,24.5T905,274l165,143ZM957,773q-20-24-35-30t-38,6q-18,10-20.5,26.5T873,818q15,30 37,76.5t48.5,101T1012,1107t53,108t47,91.5t34,60.5q28,44 67,56t85-14q45-25 52.5-62t-20.5-80q-12-20-38.5-56.5t-61-83t-73-97.5t-76-100t-70-89.5T957,773ZM750,624q20,23 36,29.5t38-4.5q19-11 20.5-27.5T833,579q-14-30-36-76.5T748.5,401T695,288.5t-53-109T595,88T561,28q-28-43-67-54.5T409-13q-44,24-52,61t21,80q12,20 38,56.5t61,84t73.5,98t76,99.5T696,556.5T750,624ZM414,1047l-22,18q18,5 40,8t50,3q117,0 191.5-53T748,877q0-104-91.5-165.5T408,650q-150,0-225.5,51T107,828q0,50 37.5,83T236,944q56,0 86.5-29.5T353,837V778q0-28 15.5-48.5T412,709q34,0 51.5,32.5T481,850q0,78-23.5,112.5T397,997H354q-22,0-36.5,9.5T303,1036q0,14 7.5,26.5T334,1086l239,190l9-67H305q-47,0-57-34l-11-40q-3-16-15.5-25.5T186,1100t-37.5,11T136,1144l21,206q2,23 21,36.5t50,13.5H698q27,0 42.5-12t15.5-32q0-14-12.5-27.5T703,1297L414,1047Z"/>
      <glyph unicode="&#xbf;" glyph-name="gid62" horiz-adv-x="1119" d="M748,481L727,585q-9,34-28,50t-54,16q-31,0-48-15t-31-55l-20-86q-9-34-23.5-49T475,424l-71-14Q218,373 136,284.5T54,54q0-183 131.5-279.5T591-322q155,0 274.5,50t188,133T1122,44q0,93-53,144.5T929,240q-101,0-155.5-60T719,10l1-91q0-62-31.5-95.5T605-210q-61,0-90.5,54T485,0q0,133 23,208t91,105l68,29q57,24 75.5,57t5.5,82Zm-95,696q61,0 111.5-31.5t80-83.5T874,949q0-62-29.5-113t-80-82T653,723q-64,0-114,31t-79.5,82T430,949q0,61 29.5,113t79.5,83.5T653,1177Z"/>
      <glyph unicode="&#xc0;" glyph-name="gid180" horiz-adv-x="1546" d="M353,588H937l2-135H350l3,135ZM502,61q0-28-18.5-44.5T425,0H105Q66,0 46.5,16.5T27,61q0,20 10,34t33,28l24,13q33,18 51,47t40,99l272,868q17,55 11.5,80T428,1271q-28,13-39.5,29T377,1339q0,29 19.5,45t59.5,16h602q40,0 59-16t19-45q0-25-12-40.5t-35-26.5q-25-11-30-29.5t8-60.5l294-916q19-62 36.5-91t46.5-42q33-16 44.5-31.5T1500,61q0-28-19.5-44.5T1421,0H914q-41,0-60,16.5T835,61q0,23 12.5,37T884,123l39,14q26,11 23,30.5T929,231L619,1239l40,28L357,305q-15-49-15-79t18.5-50.5T420,135l34-14q22-11 35-24t13-36ZM817,1733l104-177q11-18 15.5-34t-7.5-31q-12-13-32.5-14.5T857,1481l-186,74q-70,25-111.5,59.5T508,1707q-11,48 18,95t89,59q65,13 114-23.5T817,1733Z"/>
      <glyph unicode="&#xc1;" glyph-name="gid179" horiz-adv-x="1546" d="M353,588H937l2-135H350l3,135ZM502,61q0-28-18.5-44.5T425,0H105Q66,0 46.5,16.5T27,61q0,20 10,34t33,28l24,13q33,18 51,47t40,99l272,868q17,55 11.5,80T428,1271q-28,13-39.5,29T377,1339q0,29 19.5,45t59.5,16h602q40,0 59-16t19-45q0-25-12-40.5t-35-26.5q-25-11-30-29.5t8-60.5l294-916q19-62 36.5-91t46.5-42q33-16 44.5-31.5T1500,61q0-28-19.5-44.5T1421,0H914q-41,0-60,16.5T835,61q0,23 12.5,37T884,123l39,14q26,11 23,30.5T929,231L619,1239l40,28L357,305q-15-49-15-79t18.5-50.5T420,135l34-14q22-11 35-24t13-36ZM824,1733q40,68 88.5,104.5T1026,1861q60-12 89-59t18-95q-10-58-51-92.5T970,1555l-186-74q-19-6-39.5-4.5T712,1491q-12,15-7.5,31t15.5,34l104,177Z"/>
      <glyph unicode="&#xc2;" glyph-name="gid181" horiz-adv-x="1546" d="M353,588H937l2-135H350l3,135ZM502,61q0-28-18.5-44.5T425,0H105Q66,0 46.5,16.5T27,61q0,20 10,34t33,28l24,13q33,18 51,47t40,99l272,868q17,55 11.5,80T428,1271q-28,13-39.5,29T377,1339q0,29 19.5,45t59.5,16h602q40,0 59-16t19-45q0-25-12-40.5t-35-26.5q-25-11-30-29.5t8-60.5l294-916q19-62 36.5-91t46.5-42q33-16 44.5-31.5T1500,61q0-28-19.5-44.5T1421,0H914q-41,0-60,16.5T835,61q0,23 12.5,37T884,123l39,14q26,11 23,30.5T929,231L619,1239l40,28L357,305q-15-49-15-79t18.5-50.5T420,135l34-14q22-11 35-24t13-36ZM850,1659H677l310-166q58-32 92-5q13,11 14.5,31.5T1073,1562L879,1777q-29,30-53.5,47.5T764,1842t-61.5-17.5T648,1777L456,1562q-23-22-21-42.5t15-31.5q33-27 90,5l310,166Z"/>
      <glyph unicode="&#xc3;" glyph-name="gid182" horiz-adv-x="1546" d="M353,588H937l2-135H350l3,135ZM502,61q0-28-18.5-44.5T425,0H105Q66,0 46.5,16.5T27,61q0,20 10,34t33,28l24,13q33,18 51,47t40,99l272,868q17,55 11.5,80T428,1271q-28,13-39.5,29T377,1339q0,29 19.5,45t59.5,16h602q40,0 59-16t19-45q0-25-12-40.5t-35-26.5q-25-11-30-29.5t8-60.5l294-916q19-62 36.5-91t46.5-42q33-16 44.5-31.5T1500,61q0-28-19.5-44.5T1421,0H914q-41,0-60,16.5T835,61q0,23 12.5,37T884,123l39,14q26,11 23,30.5T929,231L619,1239l40,28L357,305q-15-49-15-79t18.5-50.5T420,135l34-14q22-11 35-24t13-36ZM909,1486q-45,0-82.5,15.5T757,1538t-61,37t-56,16q-56,0-73-80q-13-34-49-34q-50,0-50,65q0,124 48,188.5T645,1795q45,0 82.5-15.5T797,1743t61-36.5t56-15.5q59,0 73,80q13,34 50,34q49,0 49-65q0-124-48-189t-129-65Z"/>
      <glyph unicode="&#xc4;" glyph-name="gid183" horiz-adv-x="1546" d="M353,588H937l2-135H350l3,135ZM502,61q0-28-18.5-44.5T425,0H105Q66,0 46.5,16.5T27,61q0,20 10,34t33,28l24,13q33,18 51,47t40,99l272,868q17,55 11.5,80T428,1271q-28,13-39.5,29T377,1339q0,29 19.5,45t59.5,16h602q40,0 59-16t19-45q0-25-12-40.5t-35-26.5q-25-11-30-29.5t8-60.5l294-916q19-62 36.5-91t46.5-42q33-16 44.5-31.5T1500,61q0-28-19.5-44.5T1421,0H914q-41,0-60,16.5T835,61q0,23 12.5,37T884,123l39,14q26,11 23,30.5T929,231L619,1239l40,28L357,305q-15-49-15-79t18.5-50.5T420,135l34-14q22-11 35-24t13-36Zm33,1417q-82,0-130.5,43.5T356,1640q0,77 48.5,120.5T535,1804q83,0 130.5-43.5T713,1640q0-74-47.5-118T535,1478Zm446,0q-82,0-130.5,43.5T802,1640q0,76 48.5,120T981,1804q85,0 133-43.5t48-120.5q0-74-48-118t-133-44Z"/>
      <glyph unicode="&#xc5;" glyph-name="gid184" horiz-adv-x="1546" d="M353,588H937l2-135H350l3,135ZM502,61q0-28-18.5-44.5T425,0H105Q66,0 46.5,16.5T27,61q0,20 10,34t33,28l24,13q33,18 51,47t40,99l272,868q17,55 11.5,80T428,1271q-28,13-39.5,29T377,1339q0,29 19.5,45t59.5,16h602q40,0 59-16t19-45q0-25-12-40.5t-35-26.5q-25-11-30-29.5t8-60.5l294-916q19-62 36.5-91t46.5-42q33-16 44.5-31.5T1500,61q0-28-19.5-44.5T1421,0H914q-41,0-60,16.5T835,61q0,23 12.5,37T884,123l39,14q26,11 23,30.5T929,231L619,1239l40,28L357,305q-15-49-15-79t18.5-50.5T420,135l34-14q22-11 35-24t13-36ZM771,1471q-101,0-169.5,49T533,1660t68.5,139.5T771,1848q104,0 171.5-50t67.5-138q0-89-67.5-139T771,1471Zm2,296q-33,0-53-27t-20-80t20-81t53-28q32,0 51.5,28.5T844,1660q0,53-19.5,80T773,1767Z"/>
      <glyph unicode="&#xc6;" glyph-name="gid174" horiz-adv-x="2057" d="M1067,1400l-57-135H920L389,305q-36-64-22.5-106.5T426,135l34-14q22-11 35-24t13-36q0-28-18.5-44.5T431,0H89Q49,0 30.5,16.5T12,61q0,35 43,62l23,13q28,16 57,54t60,92l483,868q28,48 18.5,76.5T649,1271q-28,11-39.5,28T598,1339q0,29 19,45t59,16h391ZM450,662H997l2-136H447l3,136Zm745,111h272q62,0 89,25t46,96q16,59 66,59q48,1 61-54l79-312q15-65-36-82q-54-19-86,27q-31,47-57,71.5T1571,637t-82,9H1195V773ZM930,205V1400h690q43,0 71.5,9t53,18.5t57.5,9.5q40,0 61-23t36-75l84-284q10-32 0-54t-38-32q-33-11-59,0.5t-42,43.5q-43,79-80.5,129.5t-75,78.5t-79,38.5T1515,1270H1354V245q0-58 29.5-86.5T1470,130h76q73,0 128.5,23.5t107,88.5T1891,432q14,29 37,39.5t52,5.5q32-6 46.5-29.5T2031,389L1939,62q-14-50-35.5-74T1838-36q-29,0-53,9T1732.5-9T1661,0H865q-40,0-59,16.5T787,61q0,49 49,67l43,14q26,9 38.5,24T930,205Z"/>
      <glyph unicode="&#xc7;" glyph-name="gid185" horiz-adv-x="1432" d="M1373,394q0-77-41-153.5t-117.5-140T1029.5-1T785-39Q563-39 401.5,54.5T152,313T64,692q0,161 52.5,297t147,237t221,156.5T758,1438q95,0 154-16.5t94-34t59-17.5q28,0 45.5,16t35.5,31.5t47,15.5q22,0 37.5-14.5T1256,1369l103-353q8-29-7-51.5T1309,935q-31-7-56.5,4.5T1213,983q-51,120-113.5,188.5t-131.5,96T825,1295q-77,0-138.5-36T581,1154.5T514,989T491,772q0-195 54-326T694,249.5T913,184q112,0 202,56.5T1260,405q16,29 34,38.5t40,5.5q21-4 30-18t9-37ZM717,13h93L731-140l-64,15q22,6 48,8.5t65,2.5q104,0 159-42.5T994-274q0-82-65.5-130.5T741-453q-101,0-161,33t-67,76q-1,20 11.5,33T554-298q16,2 28-4t26-14q21-22 44-32t50-10q70,0 70,87q0,38-20.5,58T689-193H663q-25,0-31.5,15t3.5,36L717,13Z"/>
      <glyph unicode="&#xc8;" glyph-name="gid187" horiz-adv-x="1366" d="M501,773H776q62,0 89,25t46,96q8,31 25.5,45T977,953q48,1 61-54l79-312q8-34-1-53.5T1081,505t-48-2.5T995,532q-31,47-57,71.5T880,637t-82,9H501V773ZM92,1339q0,29 19,45t59,16H930q43,0 71,9t53,18.5t57,9.5q40,0 61-23t36-75l84-284q10-32 0-54t-38-32q-33-11-59,0.5t-42,43.5q-43,79-80,129.5T998,1221t-79.5,38.5T825,1270H660V245q0-58 29.5-86.5T775,130h79q73,0 129,23.5T1090,242t110,190q13,29 36,39.5t52,5.5q32-6 46.5-29.5T1339,389L1247,62q-14-50-35.5-74T1146-36q-29,0-52.5,9T1041-9T969,0H170q-40,0-59,16.5T92,61q0,49 49,67l43,14q26,9 38.5,24T235,205v990q0,24-12.5,39T184,1258l-43,14q-49,18-49,67Zm626,394l104-177q11-18 15.5-34t-7.5-31q-12-13-32.5-14.5T758,1481l-186,74q-70,25-111.5,59.5T409,1707q-11,48 18,95t89,59q65,13 114-23.5T718,1733Z"/>
      <glyph unicode="&#xc9;" glyph-name="gid186" horiz-adv-x="1366" d="M501,773H776q62,0 89,25t46,96q8,31 25.5,45T977,953q48,1 61-54l79-312q8-34-1-53.5T1081,505t-48-2.5T995,532q-31,47-57,71.5T880,637t-82,9H501V773ZM92,1339q0,29 19,45t59,16H930q43,0 71,9t53,18.5t57,9.5q40,0 61-23t36-75l84-284q10-32 0-54t-38-32q-33-11-59,0.5t-42,43.5q-43,79-80,129.5T998,1221t-79.5,38.5T825,1270H660V245q0-58 29.5-86.5T775,130h79q73,0 129,23.5T1090,242t110,190q13,29 36,39.5t52,5.5q32-6 46.5-29.5T1339,389L1247,62q-14-50-35.5-74T1146-36q-29,0-52.5,9T1041-9T969,0H170q-40,0-59,16.5T92,61q0,49 49,67l43,14q26,9 38.5,24T235,205v990q0,24-12.5,39T184,1258l-43,14q-49,18-49,67Zm632,394q40,68 88.5,104.5T926,1861q60-12 89-59t18-95q-10-58-51-92.5T870,1555l-186-74q-19-6-39.5-4.5T612,1491q-12,15-7.5,31t15.5,34l104,177Z"/>
      <glyph unicode="&#xca;" glyph-name="gid188" horiz-adv-x="1366" d="M501,773H776q62,0 89,25t46,96q8,31 25.5,45T977,953q48,1 61-54l79-312q8-34-1-53.5T1081,505t-48-2.5T995,532q-31,47-57,71.5T880,637t-82,9H501V773ZM92,1339q0,29 19,45t59,16H930q43,0 71,9t53,18.5t57,9.5q40,0 61-23t36-75l84-284q10-32 0-54t-38-32q-33-11-59,0.5t-42,43.5q-43,79-80,129.5T998,1221t-79.5,38.5T825,1270H660V245q0-58 29.5-86.5T775,130h79q73,0 129,23.5T1090,242t110,190q13,29 36,39.5t52,5.5q32-6 46.5-29.5T1339,389L1247,62q-14-50-35.5-74T1146-36q-29,0-52.5,9T1041-9T969,0H170q-40,0-59,16.5T92,61q0,49 49,67l43,14q26,9 38.5,24T235,205v990q0,24-12.5,39T184,1258l-43,14q-49,18-49,67Zm680,320H599l310-166q58-32 92-5q13,11 14.5,31.5T995,1562L801,1777q-29,30-53.5,47.5T686,1842t-61.5-17.5T570,1777L378,1562q-23-22-21-42.5t15-31.5q33-27 90,5l310,166Z"/>
      <glyph unicode="&#xcb;" glyph-name="gid189" horiz-adv-x="1366" d="M501,773H776q62,0 89,25t46,96q8,31 25.5,45T977,953q48,1 61-54l79-312q8-34-1-53.5T1081,505t-48-2.5T995,532q-31,47-57,71.5T880,637t-82,9H501V773ZM92,1339q0,29 19,45t59,16H930q43,0 71,9t53,18.5t57,9.5q40,0 61-23t36-75l84-284q10-32 0-54t-38-32q-33-11-59,0.5t-42,43.5q-43,79-80,129.5T998,1221t-79.5,38.5T825,1270H660V245q0-58 29.5-86.5T775,130h79q73,0 129,23.5T1090,242t110,190q13,29 36,39.5t52,5.5q32-6 46.5-29.5T1339,389L1247,62q-14-50-35.5-74T1146-36q-29,0-52.5,9T1041-9T969,0H170q-40,0-59,16.5T92,61q0,49 49,67l43,14q26,9 38.5,24T235,205v990q0,24-12.5,39T184,1258l-43,14q-49,18-49,67Zm370,139q-82,0-130.5,43.5T283,1640q0,77 48.5,120.5T462,1804q83,0 130.5-43.5T640,1640q0-74-47.5-118T462,1478Zm446,0q-82,0-130.5,43.5T729,1640q0,76 48.5,120T908,1804q85,0 133-43.5t48-120.5q0-74-48-118t-133-44Z"/>
      <glyph unicode="&#xcc;" glyph-name="gid191" horiz-adv-x="894" d="M659,205q0-24 13-39t38-24l43-14q49-18 49-67q0-28-19-44.5T724,0H170q-40,0-59,16.5T92,61q0,49 49,67l43,14q26,9 38.5,24T235,205v990q0,24-12.5,39T184,1258l-43,14q-49,18-49,67q0,29 19,45t59,16H724q40,0 59-16t19-45q0-49-49-67l-43-14q-25-9-38-24t-13-39V205ZM479,1733l104-177q11-18 15.5-34t-7.5-31q-12-13-32.5-14.5T519,1481l-186,74q-70,25-111.5,59.5T170,1707q-11,48 18,95t89,59q65,13 114-23.5T479,1733Z"/>
      <glyph unicode="&#xcd;" glyph-name="gid190" horiz-adv-x="894" d="M659,205q0-24 13-39t38-24l43-14q49-18 49-67q0-28-19-44.5T724,0H170q-40,0-59,16.5T92,61q0,49 49,67l43,14q26,9 38.5,24T235,205v990q0,24-12.5,39T184,1258l-43,14q-49,18-49,67q0,29 19,45t59,16H724q40,0 59-16t19-45q0-49-49-67l-43-14q-25-9-38-24t-13-39V205ZM485,1733q40,68 88.5,104.5T687,1861q60-12 89-59t18-95q-10-58-51-92.5T631,1555l-186-74q-19-6-39.5-4.5T373,1491q-12,15-7.5,31t15.5,34l104,177Z"/>
      <glyph unicode="&#xce;" glyph-name="gid192" horiz-adv-x="894" d="M659,205q0-24 13-39t38-24l43-14q49-18 49-67q0-28-19-44.5T724,0H170q-40,0-59,16.5T92,61q0,49 49,67l43,14q26,9 38.5,24T235,205v990q0,24-12.5,39T184,1258l-43,14q-49,18-49,67q0,29 19,45t59,16H724q40,0 59-16t19-45q0-49-49-67l-43-14q-25-9-38-24t-13-39V205ZM533,1659H360l310-166q58-32 92-5q13,11 14.5,31.5T756,1562L562,1777q-29,30-53.5,47.5T447,1842t-61.5-17.5T331,1777L139,1562q-23-22-21-42.5t15-31.5q33-27 90,5l310,166Z"/>
      <glyph unicode="&#xcf;" glyph-name="gid193" horiz-adv-x="894" d="M659,205q0-24 13-39t38-24l43-14q49-18 49-67q0-28-19-44.5T724,0H170q-40,0-59,16.5T92,61q0,49 49,67l43,14q26,9 38.5,24T235,205v990q0,24-12.5,39T184,1258l-43,14q-49,18-49,67q0,29 19,45t59,16H724q40,0 59-16t19-45q0-49-49-67l-43-14q-25-9-38-24t-13-39V205ZM223,1478q-82,0-130.5,43.5T44,1640q0,77 48.5,120.5T223,1804q83,0 130.5-43.5T401,1640q0-74-47.5-118T223,1478Zm446,0q-82,0-130.5,43.5T490,1640q0,76 48.5,120T669,1804q85,0 133-43.5T850,1640q0-74-48-118t-133-44Z"/>
      <glyph unicode="&#xd0;" glyph-name="gid177" horiz-adv-x="1651" d="M59,705q0,21 14.5,33.5T108,751H815q22,0 36-12.5T865,705q0-23-14-35t-36-12H107q-21,0-34.5,12T59,705ZM92,61q0,49 49,67l43,14q26,9 38.5,24T235,205v990q0,24-12.5,39T184,1258l-43,14q-49,18-49,67q0,29 19,45t59,16H768q184,0 335-55t259.5-155T1530,952.5T1589,649q0-188-89-334.5T1248.5,84T863,0H170q-40,0-59,16.5T92,61Zm720,69q98,0 174.5,54.5T1107,355t44,300q0,145-29,259t-85.5,193.5t-136,121T720,1270H659V235q0-55 29-80t83-25h41Z"/>
      <glyph unicode="&#xd1;" glyph-name="gid194" horiz-adv-x="1542" d="M545,61q0-28-18.5-44T468,0H150Q110,1 90.5,17T71,61q0,47 54,70l28,11q46,20 64.5,46T236,269v781q0,36-7,56t-33,54l-80,105q-20,28-28,44t-8,33q0,28 19,43t50,15H461q37,0 60.5-12.5T570,1341l678-945l-56-159v894q0,54-16.5,80t-66.5,47l-27,11q-54,25-54,70q0,29 19,45t59,16h317q40,0 59.5-16t19.5-45q0-46-54-70l-28-11q-46-19-64.5-45t-18.5-82V345q0-38 6.5-66.5T1367,227l62-85q24-32 28.5-48t4.5-33q0-28-18.5-44.5T1393,0H1033q-61,0-61,49q0,17-7,33.5T926,143L253,1080l128,81V268q0-52 17-78t66-48l28-11q53-24 53-70ZM948,1486q-45,0-82.5,15.5T796,1538t-61,37t-56,16q-56,0-73-80q-13-34-49-34q-50,0-50,65q0,124 48,188.5T684,1795q45,0 82.5-15.5T836,1743t61-36.5t56-15.5q59,0 73,80q13,34 50,34q49,0 49-65q0-124-48-189t-129-65Z"/>
      <glyph unicode="&#xd2;" glyph-name="gid196" horiz-adv-x="1603" d="M796,1438q172,0 309-53.5T1338.5,1232T1486,996t51-305q0-154-50.5-287t-146-232.5T1110,16.5T806-39Q635-39 498,14.5T264.5,167t-148,236.5T65,709q0,154 51,286.5t146.5,232t230.5,155T796,1438Zm305-998q0,134-22.5,261t-61,237T929,1131.5T823,1262t-113,47q-65,0-111-40.5t-70-118T505,960q0-134 22.5-261.5t61-237.5T677,268T783,137.5T896,90q67,0 112,40.5t69,118T1101,440ZM834,1733l104-177q11-18 15.5-34t-7.5-31q-12-13-32.5-14.5T874,1481l-186,74q-70,25-111.5,59.5T525,1707q-11,48 18,95t89,59q65,13 114-23.5T834,1733Z"/>
      <glyph unicode="&#xd3;" glyph-name="gid195" horiz-adv-x="1603" d="M796,1438q172,0 309-53.5T1338.5,1232T1486,996t51-305q0-154-50.5-287t-146-232.5T1110,16.5T806-39Q635-39 498,14.5T264.5,167t-148,236.5T65,709q0,154 51,286.5t146.5,232t230.5,155T796,1438Zm305-998q0,134-22.5,261t-61,237T929,1131.5T823,1262t-113,47q-65,0-111-40.5t-70-118T505,960q0-134 22.5-261.5t61-237.5T677,268T783,137.5T896,90q67,0 112,40.5t69,118T1101,440ZM840,1734q40,68 88.5,104.5T1042,1862q60-12 89-59t18-95q-10-58-51-92.5T986,1556l-186-74q-19-6-39.5-4.5T728,1492q-12,15-7.5,31t15.5,34l104,177Z"/>
      <glyph unicode="&#xd4;" glyph-name="gid197" horiz-adv-x="1603" d="M796,1438q172,0 309-53.5T1338.5,1232T1486,996t51-305q0-154-50.5-287t-146-232.5T1110,16.5T806-39Q635-39 498,14.5T264.5,167t-148,236.5T65,709q0,154 51,286.5t146.5,232t230.5,155T796,1438Zm305-998q0,134-22.5,261t-61,237T929,1131.5T823,1262t-113,47q-65,0-111-40.5t-70-118T505,960q0-134 22.5-261.5t61-237.5T677,268T783,137.5T896,90q67,0 112,40.5t69,118T1101,440ZM887,1659H714l310-166q58-32 92-5q13,11 14.5,31.5T1110,1562L916,1777q-29,30-53.5,47.5T801,1842t-61.5-17.5T685,1777L493,1562q-23-22-21-42.5t15-31.5q33-27 90,5l310,166Z"/>
      <glyph unicode="&#xd5;" glyph-name="gid198" horiz-adv-x="1603" d="M796,1438q172,0 309-53.5T1338.5,1232T1486,996t51-305q0-154-50.5-287t-146-232.5T1110,16.5T806-39Q635-39 498,14.5T264.5,167t-148,236.5T65,709q0,154 51,286.5t146.5,232t230.5,155T796,1438Zm305-998q0,134-22.5,261t-61,237T929,1131.5T823,1262t-113,47q-65,0-111-40.5t-70-118T505,960q0-134 22.5-261.5t61-237.5T677,268T783,137.5T896,90q67,0 112,40.5t69,118T1101,440ZM934,1487q-45,0-82.5,15.5T782,1539t-61,37t-56,16q-56,0-73-80q-13-34-49-34q-50,0-50,65q0,124 48,188.5T670,1796q45,0 82.5-15.5T822,1744t61-36.5t56-15.5q59,0 73,80q13,34 50,34q49,0 49-65q0-124-48-189t-129-65Z"/>
      <glyph unicode="&#xd6;" glyph-name="gid199" horiz-adv-x="1603" d="M796,1438q172,0 309-53.5T1338.5,1232T1486,996t51-305q0-154-50.5-287t-146-232.5T1110,16.5T806-39Q635-39 498,14.5T264.5,167t-148,236.5T65,709q0,154 51,286.5t146.5,232t230.5,155T796,1438Zm305-998q0,134-22.5,261t-61,237T929,1131.5T823,1262t-113,47q-65,0-111-40.5t-70-118T505,960q0-134 22.5-261.5t61-237.5T677,268T783,137.5T896,90q67,0 112,40.5t69,118T1101,440ZM578,1478q-82,0-130.5,43.5T399,1640q0,77 48.5,120.5T578,1804q83,0 130.5-43.5T756,1640q0-74-47.5-118T578,1478Zm446,0q-82,0-130.5,43.5T845,1640q0,76 48.5,120t130.5,44q85,0 133-43.5t48-120.5q0-74-48-118t-133-44Z"/>
      <glyph unicode="&#xd7;" glyph-name="gid123" horiz-adv-x="1091" d="M185,301q-57,51 2,105l610,656q25,23 54,23.5t58-24.5q29-26 29.5-49T910,961L300,305q-27-24-56.5-26.5T185,301Zm725,1q-27-23-59.5-21.5T797,302L186,960q-26,24-25.5,51t27.5,49q52,49 109,0L913,399q23-23 23-48t-26-49Z"/>
      <glyph unicode="&#xd8;" glyph-name="gid178" horiz-adv-x="1603" d="M211-68q-17,10-19.5,26.5T201-11L1301,1455q11,15 28,17t34-9t20-26t-8-29L274-58q-13-17-29.5-19.5T211-68ZM796,1438q172,0 309-53.5T1338.5,1232T1486,996t51-305q0-154-50.5-287t-146-232.5T1110,16.5T806-39Q635-39 498,14.5T264.5,167t-148,236.5T65,709q0,154 51,286.5t146.5,232t230.5,155T796,1438Zm305-998q0,134-22.5,261t-61,237T929,1131.5T823,1262t-113,47q-65,0-111-40.5t-70-118T505,960q0-134 22.5-261.5t61-237.5T677,268T783,137.5T896,90q67,0 112,40.5t69,118T1101,440Z"/>
      <glyph unicode="&#xd9;" glyph-name="gid201" horiz-adv-x="1524" d="M1198,615l-37,522q-3,53-23,82t-61,40l-34,9q-36,9-51,25.5T977,1338t19,45t54,17h369q35,0 54.5-17t19.5-45t-16.5-43.5T1425,1268l-32-9q-55-16-73-48t-14-84l39-508q5-53 7.5-103.5T1355,411q1-128-60.5-229.5T1107,20.5T784-39Q585-39 453,16T254.5,171.5T189,409q0,19 1.5,47.5t4,74T201,644l35,549q2,28-10,43t-48,22l-42,10q-68,15-68,70q0,28 19.5,45t54.5,17H751q36,0 55-17t19-45t-16-44.5T758,1268l-44-10q-26-5-38-20.5T662,1194L628,640q-4-63-5.5-116T621,433q-1-170 71-246.5T890,110q98,0 169,37t109.5,105T1206,414q0,71-2.5,116t-5.5,85ZM913,1733l104-177q11-18 15.5-34t-7.5-31q-12-13-32.5-14.5T953,1481l-186,74q-70,25-111.5,59.5T604,1707q-11,48 18,95t89,59q65,13 114-23.5T913,1733Z"/>
      <glyph unicode="&#xda;" glyph-name="gid200" horiz-adv-x="1524" d="M1198,615l-37,522q-3,53-23,82t-61,40l-34,9q-36,9-51,25.5T977,1338t19,45t54,17h369q35,0 54.5-17t19.5-45t-16.5-43.5T1425,1268l-32-9q-55-16-73-48t-14-84l39-508q5-53 7.5-103.5T1355,411q1-128-60.5-229.5T1107,20.5T784-39Q585-39 453,16T254.5,171.5T189,409q0,19 1.5,47.5t4,74T201,644l35,549q2,28-10,43t-48,22l-42,10q-68,15-68,70q0,28 19.5,45t54.5,17H751q36,0 55-17t19-45t-16-44.5T758,1268l-44-10q-26-5-38-20.5T662,1194L628,640q-4-63-5.5-116T621,433q-1-170 71-246.5T890,110q98,0 169,37t109.5,105T1206,414q0,71-2.5,116t-5.5,85ZM920,1733q40,68 88.5,104.5T1122,1861q60-12 89-59t18-95q-10-58-51-92.5T1066,1555l-186-74q-19-6-39.5-4.5T808,1491q-12,15-7.5,31t15.5,34l104,177Z"/>
      <glyph unicode="&#xdb;" glyph-name="gid202" horiz-adv-x="1524" d="M1198,615l-37,522q-3,53-23,82t-61,40l-34,9q-36,9-51,25.5T977,1338t19,45t54,17h369q35,0 54.5-17t19.5-45t-16.5-43.5T1425,1268l-32-9q-55-16-73-48t-14-84l39-508q5-53 7.5-103.5T1355,411q1-128-60.5-229.5T1107,20.5T784-39Q585-39 453,16T254.5,171.5T189,409q0,19 1.5,47.5t4,74T201,644l35,549q2,28-10,43t-48,22l-42,10q-68,15-68,70q0,28 19.5,45t54.5,17H751q36,0 55-17t19-45t-16-44.5T758,1268l-44-10q-26-5-38-20.5T662,1194L628,640q-4-63-5.5-116T621,433q-1-170 71-246.5T890,110q98,0 169,37t109.5,105T1206,414q0,71-2.5,116t-5.5,85ZM968,1659H795l310-166q58-32 92-5q13,11 14.5,31.5T1191,1562L997,1777q-29,30-53.5,47.5T882,1842t-61.5-17.5T766,1777L574,1562q-23-22-21-42.5t15-31.5q33-27 90,5l310,166Z"/>
      <glyph unicode="&#xdc;" glyph-name="gid203" horiz-adv-x="1524" d="M1198,615l-37,522q-3,53-23,82t-61,40l-34,9q-36,9-51,25.5T977,1338t19,45t54,17h369q35,0 54.5-17t19.5-45t-16.5-43.5T1425,1268l-32-9q-55-16-73-48t-14-84l39-508q5-53 7.5-103.5T1355,411q1-128-60.5-229.5T1107,20.5T784-39Q585-39 453,16T254.5,171.5T189,409q0,19 1.5,47.5t4,74T201,644l35,549q2,28-10,43t-48,22l-42,10q-68,15-68,70q0,28 19.5,45t54.5,17H751q36,0 55-17t19-45t-16-44.5T758,1268l-44-10q-26-5-38-20.5T662,1194L628,640q-4-63-5.5-116T621,433q-1-170 71-246.5T890,110q98,0 169,37t109.5,105T1206,414q0,71-2.5,116t-5.5,85ZM657,1478q-82,0-130.5,43.5T478,1640q0,77 48.5,120.5T657,1804q83,0 130.5-43.5T835,1640q0-74-47.5-118T657,1478Zm446,0q-82,0-130.5,43.5T924,1640q0,76 48.5,120t130.5,44q85,0 133-43.5t48-120.5q0-74-48-118t-133-44Z"/>
      <glyph unicode="&#xdd;" glyph-name="gid204" horiz-adv-x="1409" d="M902,436L562,387L161,1187q-19,39-33,53.5T92,1265l-28,11q-22,9-32.5,26T21,1339q0,29 19,45t60,16H645q41,0 60-16t19-45q0-51-50-67l-32-9q-32-10-37.5-29t12.5-60L896,543L758,477l309,652q21,46 10.5,82t-59.5,54l-30,11q-17,7-28.5,23T948,1339q0,29 19,45t59,16h292q40,0 59-16t19-45q0-22-9.5-36t-30.5-25l-16-9q-20-9-37-25t-36-46t-45-85L902,436ZM511,517H936V205q0-24 13-39t37-24l43-14q49-18 49-67q0-28-19-44.5T1000,0H447q-40,0-59,16.5T369,61q0,49 48,67l43,14q26,9 38.5,24T511,205V517ZM856,1733q40,68 88.5,104.5T1058,1861q60-12 89-59t18-95q-10-58-51-92.5T1002,1555l-186-74q-19-6-39.5-4.5T744,1491q-12,15-7.5,31t15.5,34l104,177Z"/>
      <glyph unicode="&#xde;" glyph-name="gid176" horiz-adv-x="1509" d="M487,1013v112H868q171,0 302-51t205.5-145.5T1450,701q0-130-72.5-220T1172,344T858,297q-88,0-151,11.5t-114.5,33T487,394l15,95q39-24 76.5-42.5t82-29T764,407q98,0 159.5,66.5T985,698q0,147-71,231t-215,84H487ZM651,205q0-28 14.5-40T700,142l44-20q22-14 35.5-28T793,56q0-25-19-40.5T715,0H170q-40,0-59,16.5T92,61q0,45 49,67l44,14q23,8 36.5,21.5T235,205v990q0,28-13.5,41.5T185,1258l-44,14q-49,22-49,67q0,29 19,45t59,16H715q40,0 59-15t19-41q0-24-13.5-37.5T744,1278l-44-20q-20-11-34.5-23T651,1195V205Z"/>
      <glyph unicode="&#xdf;" glyph-name="gid210" horiz-adv-x="1513" d="M1471,361q0,132-63,228.5T1225,739T932,792l-17-30q144,13 245.5,61.5t155,126.5t53.5,180q0,93-53,169.5T1148,1423t-299,47q-215,0-354.5-72.5T287,1198T219,906V863l50,65H119q-31,0-50-13T50,878t18.5-40T118,811l49-17q20-6 33.5-17T214,735V189q0-29-13.5-46T167,121l-40-10Q75,97 75,50q0-22 18-36T145,0H504q46,0 65,24t19,65V956q0,196 60.5,299T823,1358q81,0 128.5-58T999,1140q0-71-17-131.5t-63-106T786,829q-44-19-58.5-37T713,752q0-31 19-46.5T796,679q92-16 160-64t106.5-124T1101,314q0-97-34-139t-86-42q-44,0-76.5,26.5T844,254l-32,65q-14,24-31.5,40.5T734,376q-26,0-42-19t-16-49V46q0-28 18-48t49-20q19,0 39,10t39.5,23.5t37.5,24T891,45q15,0 41-19t70-37.5T1115-30q101,0 181.5,48T1424,154t47,207Z"/>
      <glyph unicode="&#xe0;" glyph-name="gid218" horiz-adv-x="1179" d="M668,134v22l-28,1V793q0,46-24.5,72.5T549,892q-34,0-57-15.5T469,836V732q0-78-53-120.5T265,569q-83,0-124,36T100,705q0,65 57.5,129.5T330.5,942T619,985q205,0 304.5-77T1023,699V210q0-21 10-34t30-13q18,0 28.5,9.5T1111,192q7,7 14,11.5t16,4.5q16,0 23-11t7-29q0-41-30-86T1052,5T905-27Q800-27 734,18T668,134ZM62,212q0,133 120.5,212T521,503q60,0 106-9t76-25l-30-80q-25,13-47.5,19.5T576,415q-57,0-90-35.5T453,279q0-68 30.5-103T565,141q35,0 66.5,16.5T681,198l23-73Q655,53 563.5,13T368-27Q231-27 146.5,41T62,212ZM638,1325l78-199q10-18 12.5-35T717,1060q-13-12-34.5-12.5T642,1055L463,1164q-68,36-104.5,75T315,1335q-8,51 25,97.5t99,53.5q73,10 119.5-35T638,1325Z"/>
      <glyph unicode="&#xe1;" glyph-name="gid217" horiz-adv-x="1179" d="M668,134v22l-28,1V793q0,46-24.5,72.5T549,892q-34,0-57-15.5T469,836V732q0-78-53-120.5T265,569q-83,0-124,36T100,705q0,65 57.5,129.5T330.5,942T619,985q205,0 304.5-77T1023,699V210q0-21 10-34t30-13q18,0 28.5,9.5T1111,192q7,7 14,11.5t16,4.5q16,0 23-11t7-29q0-41-30-86T1052,5T905-27Q800-27 734,18T668,134ZM62,212q0,133 120.5,212T521,503q60,0 106-9t76-25l-30-80q-25,13-47.5,19.5T576,415q-57,0-90-35.5T453,279q0-68 30.5-103T565,141q35,0 66.5,16.5T681,198l23-73Q655,53 563.5,13T368-27Q231-27 146.5,41T62,212ZM603,1325q33,81 79.5,126T802,1486q66-7 98.5-53.5T926,1335q-7-57-43.5-96T777,1164L600,1055q-20-8-41-7.5T525,1060q-15,14-12,31t13,35l77,199Z"/>
      <glyph unicode="&#xe2;" glyph-name="gid219" horiz-adv-x="1179" d="M668,134v22l-28,1V793q0,46-24.5,72.5T549,892q-34,0-57-15.5T469,836V732q0-78-53-120.5T265,569q-83,0-124,36T100,705q0,65 57.5,129.5T330.5,942T619,985q205,0 304.5-77T1023,699V210q0-21 10-34t30-13q18,0 28.5,9.5T1111,192q7,7 14,11.5t16,4.5q16,0 23-11t7-29q0-41-30-86T1052,5T905-27Q800-27 734,18T668,134ZM62,212q0,133 120.5,212T521,503q60,0 106-9t76-25l-30-80q-25,13-47.5,19.5T576,415q-57,0-90-35.5T453,279q0-68 30.5-103T565,141q35,0 66.5,16.5T681,198l23-73Q655,53 563.5,13T368-27Q231-27 146.5,41T62,212ZM680,1280H503l318-222q26-18 51.5-17.5T913,1053q14,12 14.5,32T907,1130L709,1387q-27,32-53,49t-64,17t-64.5-17T473,1387L276,1130q-21-25-20.5-45t13.5-32q17-12 42-12.5t52,17.5l317,222Z"/>
      <glyph unicode="&#xe3;" glyph-name="gid220" horiz-adv-x="1179" d="M668,134v22l-28,1V793q0,46-24.5,72.5T549,892q-34,0-57-15.5T469,836V732q0-78-53-120.5T265,569q-83,0-124,36T100,705q0,65 57.5,129.5T330.5,942T619,985q205,0 304.5-77T1023,699V210q0-21 10-34t30-13q18,0 28.5,9.5T1111,192q7,7 14,11.5t16,4.5q16,0 23-11t7-29q0-41-30-86T1052,5T905-27Q800-27 734,18T668,134ZM62,212q0,133 120.5,212T521,503q60,0 106-9t76-25l-30-80q-25,13-47.5,19.5T576,415q-57,0-90-35.5T453,279q0-68 30.5-103T565,141q35,0 66.5,16.5T681,198l23-73Q655,53 563.5,13T368-27Q231-27 146.5,41T62,212Zm665,842q-45,0-83.5,19.5t-71.5,45t-62.5,45T452,1183q-31,0-48-24t-27-74q-13-35-50-35q-51,0-51,67q0,135 49,205t132,70q47,0 85-19t71-44.5t62-44.5t58-19q32,0 48.5,24t25.5,73q13,34 51,34q51,0 51-66q0-135-49.5-205.5T727,1054Z"/>
      <glyph unicode="&#xe4;" glyph-name="gid221" horiz-adv-x="1179" d="M668,134v22l-28,1V793q0,46-24.5,72.5T549,892q-34,0-57-15.5T469,836V732q0-78-53-120.5T265,569q-83,0-124,36T100,705q0,65 57.5,129.5T330.5,942T619,985q205,0 304.5-77T1023,699V210q0-21 10-34t30-13q18,0 28.5,9.5T1111,192q7,7 14,11.5t16,4.5q16,0 23-11t7-29q0-41-30-86T1052,5T905-27Q800-27 734,18T668,134ZM62,212q0,133 120.5,212T521,503q60,0 106-9t76-25l-30-80q-25,13-47.5,19.5T576,415q-57,0-90-35.5T453,279q0-68 30.5-103T565,141q35,0 66.5,16.5T681,198l23-73Q655,53 563.5,13T368-27Q231-27 146.5,41T62,212Zm303,835q-82,0-131,45t-49,121q0,79 49,124t131,45q84,0 132-45t48-124q0-75-48-120.5T365,1047Zm452,0q-82,0-131.5,45T636,1213q0,78 49.5,123.5T817,1382q85,0 133.5-45T999,1213q0-75-48.5-120.5T817,1047Z"/>
      <glyph unicode="&#xe5;" glyph-name="gid222" horiz-adv-x="1179" d="M668,134v22l-28,1V793q0,46-24.5,72.5T549,892q-34,0-57-15.5T469,836V732q0-78-53-120.5T265,569q-83,0-124,36T100,705q0,65 57.5,129.5T330.5,942T619,985q205,0 304.5-77T1023,699V210q0-21 10-34t30-13q18,0 28.5,9.5T1111,192q7,7 14,11.5t16,4.5q16,0 23-11t7-29q0-41-30-86T1052,5T905-27Q800-27 734,18T668,134ZM62,212q0,133 120.5,212T521,503q60,0 106-9t76-25l-30-80q-25,13-47.5,19.5T576,415q-57,0-90-35.5T453,279q0-68 30.5-103T565,141q35,0 66.5,16.5T681,198l23-73Q655,53 563.5,13T368-27Q231-27 146.5,41T62,212Zm529,828q-105,0-177.5,53.5T341,1245t72.5,150.5T591,1448q109,0 180.5-54T843,1245q0-96-71.5-150.5T591,1040Zm2,323q-38,0-62.5-30T506,1245t24.5-88.5T593,1126q39,0 62.5,31.5T679,1245q0,58-23.5,88T593,1363Z"/>
      <glyph unicode="&#xe6;" glyph-name="gid205" horiz-adv-x="1699" d="M670,397q-25,14-49.5,19.5T565,422q-52,0-83.5-37T450,280q0-72 32.5-110.5T566,131q48,0 88.5,26T720,219l65-73Q736,69 631,22T394-25Q239-25 153.5,42.5T68,221q0,130 120.5,206.5T528,504q58,0 101-9t72-24l-31-74Zm971,191q0-55-35.5-84T1503,475H929v83h281q54,0 54,50q0,131-37.5,190.5T1138,858q-40,0-72-27t-50.5-85.5T997,590q0-190 84-282t224-92q82,0 146.5,37T1548,353q36,30 54,27q14-1 24.5-10.5T1637,338q-1-98-59-180.5T1416.5,25T1175-25q-173,0-292.5,60t-181,166.5T640,444V788q0,46-24,72.5T551,887q-37,0-60-19t-23-48V741q0-74-53-119T267,577q-75,0-115.5,34T111,711q0,62 54.5,125T326,941t259,42q110,0 190.5-35.5T908,839l-67-6q64,70 152,110.5T1186,984q142,0 243.5-53T1586,788t55-200Z"/>
      <glyph unicode="&#xe7;" glyph-name="gid223" horiz-adv-x="1094" d="M1031,687q0-71-52.5-120.5T837,517q-85,0-128.5,46T665,681v34q0,65-30.5,103.5T554,857q-42,0-77.5-29t-57-87T398,596q0-119 40.5-199T549,276t160-41q70,0 124.5,20.5T935,326q25,24 39,32.5t27,8.5q19,0 27.5-18t8.5-44q-2-89-60-165T816.5,18.5T580-27Q429-27 310.5,33t-187,168T55,454q0,153 67,273.5t189.5,190T601,987q133,0 229.5-40.5T979,838t52-151ZM522,13h93L536-140l-64,15q22,6 48,8.5t65,2.5q104,0 159-42.5T799-274q0-82-65.5-130.5T546-453q-101,0-161,33t-67,76q-1,20 11.5,33T359-298q16,2 28-4t26-14q21-22 44-32t50-10q70,0 70,87q0,38-20.5,58T494-193H468q-25,0-31.5,15t3.5,36L522,13Z"/>
      <glyph unicode="&#xe8;" glyph-name="gid225" horiz-adv-x="1103" d="M1050,602q0-65-35.5-100.5T912,466H311v96H613q54,0 54,50q0,129-34,187t-90,58q-42,0-75-29t-52-87T397,596q0-186 84.5-273.5T710,235q72,0 129.5,20.5T944,328q26,24 39.5,32.5T1010,369q19,0 27.5-18.5T1046,306q-1-88-60-164.5T822.5,19T580-27Q430-27 311,33T123,201.5T54,454q0,160 63.5,279.5T302.5,920T595,987q149,0 250.5-50t153-136.5T1050,602ZM617,1325l78-199q10-18 12.5-35T696,1060q-13-12-34.5-12.5T621,1055L442,1164q-68,36-104.5,75T294,1335q-8,51 25,97.5t99,53.5q73,10 119.5-35T617,1325Z"/>
      <glyph unicode="&#xe9;" glyph-name="gid224" horiz-adv-x="1103" d="M1050,602q0-65-35.5-100.5T912,466H311v96H613q54,0 54,50q0,129-34,187t-90,58q-42,0-75-29t-52-87T397,596q0-186 84.5-273.5T710,235q72,0 129.5,20.5T944,328q26,24 39.5,32.5T1010,369q19,0 27.5-18.5T1046,306q-1-88-60-164.5T822.5,19T580-27Q430-27 311,33T123,201.5T54,454q0,160 63.5,279.5T302.5,920T595,987q149,0 250.5-50t153-136.5T1050,602ZM583,1325q33,81 79.5,126T782,1486q66-7 98.5-53.5T906,1335q-7-57-43.5-96T757,1164L580,1055q-20-8-41-7.5T505,1060q-15,14-12,31t13,35l77,199Z"/>
      <glyph unicode="&#xea;" glyph-name="gid226" horiz-adv-x="1103" d="M1050,602q0-65-35.5-100.5T912,466H311v96H613q54,0 54,50q0,129-34,187t-90,58q-42,0-75-29t-52-87T397,596q0-186 84.5-273.5T710,235q72,0 129.5,20.5T944,328q26,24 39.5,32.5T1010,369q19,0 27.5-18.5T1046,306q-1-88-60-164.5T822.5,19T580-27Q430-27 311,33T123,201.5T54,454q0,160 63.5,279.5T302.5,920T595,987q149,0 250.5-50t153-136.5T1050,602ZM660,1280H483l318-222q26-18 51.5-17.5T893,1053q14,12 14.5,32T887,1130L689,1387q-27,32-53,49t-64,17t-64.5-17T453,1387L256,1130q-21-25-20.5-45t13.5-32q17-12 42-12.5t52,17.5l317,222Z"/>
      <glyph unicode="&#xeb;" glyph-name="gid227" horiz-adv-x="1103" d="M1050,602q0-65-35.5-100.5T912,466H311v96H613q54,0 54,50q0,129-34,187t-90,58q-42,0-75-29t-52-87T397,596q0-186 84.5-273.5T710,235q72,0 129.5,20.5T944,328q26,24 39.5,32.5T1010,369q19,0 27.5-18.5T1046,306q-1-88-60-164.5T822.5,19T580-27Q430-27 311,33T123,201.5T54,454q0,160 63.5,279.5T302.5,920T595,987q149,0 250.5-50t153-136.5T1050,602ZM344,1047q-82,0-131,45t-49,121q0,79 49,124t131,45q84,0 132-45t48-124q0-75-48-120.5T344,1047Zm452,0q-82,0-131.5,45T615,1213q0,78 49.5,123.5T796,1382q85,0 133.5-45T978,1213q0-75-48.5-120.5T796,1047Z"/>
      <glyph unicode="&#xec;" glyph-name="gid229" horiz-adv-x="672" d="M541,924V195q0-37 7.5-52.5T571,119l24-10q20-9 30-22.5T635,53q0-25-18-39T568,0H132Q101,0 83,14T65,53q0,20 10,33.5T103,109l27,10q15,9 22,24t7,52V701q0,30-8.5,42T126,761l-30,4q-19,7-28.5,18T58,813q0,21 13.5,34.5T115,872l254,87q39,13 62,19t50,6t43.5-16.5T541,924ZM385,1325l78-199q10-18 12.5-35T464,1060q-13-12-34.5-12.5T389,1055L210,1164q-68,36-104.5,75T62,1335q-8,51 25,97.5t99,53.5q73,10 119.5-35T385,1325Z"/>
      <glyph unicode="&#xed;" glyph-name="gid228" horiz-adv-x="672" d="M541,924V195q0-37 7.5-52.5T571,119l24-10q20-9 30-22.5T635,53q0-25-18-39T568,0H132Q101,0 83,14T65,53q0,20 10,33.5T103,109l27,10q15,9 22,24t7,52V701q0,30-8.5,42T126,761l-30,4q-19,7-28.5,18T58,813q0,21 13.5,34.5T115,872l254,87q39,13 62,19t50,6t43.5-16.5T541,924ZM350,1325q33,81 79.5,126T549,1486q66-7 98.5-53.5T673,1335q-7-57-43.5-96T524,1164L347,1055q-20-8-41-7.5T272,1060q-15,14-12,31t13,35l77,199Z"/>
      <glyph unicode="&#xee;" glyph-name="gid230" horiz-adv-x="672" d="M541,924V195q0-37 7.5-52.5T571,119l24-10q20-9 30-22.5T635,53q0-25-18-39T568,0H132Q101,0 83,14T65,53q0,20 10,33.5T103,109l27,10q15,9 22,24t7,52V701q0,30-8.5,42T126,761l-30,4q-19,7-28.5,18T58,813q0,21 13.5,34.5T115,872l254,87q39,13 62,19t50,6t43.5-16.5T541,924ZM410,1280H251l286-222q23-18 46-17.5t37,12.5q12,12 12.5,32T614,1130L436,1387q-24,32-47.5,49T331,1453q-35,0-58.5-17T224,1387L46,1130q-19-25-18.5-45T40,1053q15-12 37.5-12.5T125,1058l285,222Z"/>
      <glyph unicode="&#xef;" glyph-name="gid231" horiz-adv-x="672" d="M541,924V195q0-37 7.5-52.5T571,119l24-10q20-9 30-22.5T635,53q0-25-18-39T568,0H132Q101,0 83,14T65,53q0,20 10,33.5T103,109l27,10q15,9 22,24t7,52V701q0,30-8.5,42T126,761l-30,4q-19,7-28.5,18T58,813q0,21 13.5,34.5T115,872l254,87q39,13 62,19t50,6t43.5-16.5T541,924ZM155,1046q-66,0-105,45T11,1212q0,79 39,124t105,45q67,0 105.5-45T299,1212q0-75-38.5-120.5T155,1046Zm361,0q-65,0-105,45t-40,121q0,78 40,123.5T516,1381q68,0 107-45t39-124q0-75-39-120.5T516,1046Z"/>
      <glyph unicode="&#xf0;" glyph-name="gid208" horiz-adv-x="1237" d="M1182,593q0-202-71-341T912.5,41.5T614-30Q438-30 313,39T122.5,231T57,516q0,129 57.5,236.5t160,172T510,989q82,0 146.5-26.5t105.5-78T813,758l-32-13q-17,126-71,248T574.5,1210.5T394,1352q-48,23-67,45t-19,48q1,29 30,49t93,13q149-20 284-100t240.5-203.5t166-280T1182,593ZM459,608q0-123 32.5-224.5t81.5-162T673,161q39,0 67,25.5T783.5,263T798,390q0,125-33.5,217.5t-83,143T581,801q-40,0-67.5-23.5T472,711T459,608ZM269,1104q-12,26-5,48t36,35l633,297q34,16 56.5,7t33.5-33q27-57-37-86L353,1075q-29-14-51-4t-33,33Z"/>
      <glyph unicode="&#xf1;" glyph-name="gid232" horiz-adv-x="1344" d="M546,903V195q0-38 7-53t22-23l25-11q32-17 32-50q0-58-70-58H132Q96,0 79.5,14.5T63,54q0,19 9.5,32.5T103,109l27,10q16,7 22.5,22.5T159,195V695q0,30-8,43t-25,17l-30,6q-20,6-29,18t-9,30q0,22 12,34.5T115,869l216,82q47,18 76,26t56,8q41,0 62-23t21-59ZM512,665l-56,59l33,30Q625,879 722,933t181,54q127,0 199-87t85-227l48-478q4-37 9-53t21-23l26-10q21-9 31-22.5T1332,54q0-25-16.5-39.5T1262,0H828q-71,0-71,58q0,33 32,50l25,11q16,8 24.5,23.5T844,195L802,618q-7,70-34,104.5T686,757q-33,0-69-15.5T548,697l-36-32Zm314,389q-45,0-83.5,19.5t-71.5,45t-62.5,45T551,1183q-31,0-48-24t-27-74q-13-35-50-35q-51,0-51,67q0,135 49,205t132,70q47,0 85-19t71-44.5t62-44.5t58-19q32,0 48.5,24t25.5,73q13,34 51,34q51,0 51-66q0-135-49.5-205.5T826,1054Z"/>
      <glyph unicode="&#xf2;" glyph-name="gid235" horiz-adv-x="1229" d="M621,986q166,0 290-64t193-179t69-267q0-141-72-255.5T902,39.5T607-27Q441-27 317,38T124,218T55,483q0,144 72,258T326.5,920.5T621,986Zm73-881q45,10 70.5,56T791,293.5T765,509q-25,126-60,206T626.5,829.5T535,854q-46-9-71-55.5t-26-132T463,450q25-125 60.5-205T602,130.5T694,105ZM661,1325l78-199q10-18 12.5-35T740,1060q-13-12-34.5-12.5T665,1055L486,1164q-68,36-104.5,75T338,1335q-8,51 25,97.5t99,53.5q73,10 119.5-35T661,1325Z"/>
      <glyph unicode="&#xf3;" glyph-name="gid234" horiz-adv-x="1229" d="M621,986q166,0 290-64t193-179t69-267q0-141-72-255.5T902,39.5T607-27Q441-27 317,38T124,218T55,483q0,144 72,258T326.5,920.5T621,986Zm73-881q45,10 70.5,56T791,293.5T765,509q-25,126-60,206T626.5,829.5T535,854q-46-9-71-55.5t-26-132T463,450q25-125 60.5-205T602,130.5T694,105ZM626,1325q33,81 79.5,126T825,1486q66-7 98.5-53.5T949,1335q-7-57-43.5-96T800,1164L623,1055q-20-8-41-7.5T548,1060q-15,14-12,31t13,35l77,199Z"/>
      <glyph unicode="&#xf4;" glyph-name="gid236" horiz-adv-x="1229" d="M621,986q166,0 290-64t193-179t69-267q0-141-72-255.5T902,39.5T607-27Q441-27 317,38T124,218T55,483q0,144 72,258T326.5,920.5T621,986Zm73-881q45,10 70.5,56T791,293.5T765,509q-25,126-60,206T626.5,829.5T535,854q-46-9-71-55.5t-26-132T463,450q25-125 60.5-205T602,130.5T694,105Zm9,1175H526l318-222q26-18 51.5-17.5T936,1053q14,12 14.5,32T930,1130L732,1387q-27,32-53,49t-64,17t-64.5-17T496,1387L299,1130q-21-25-20.5-45t13.5-32q17-12 42-12.5t52,17.5l317,222Z"/>
      <glyph unicode="&#xf5;" glyph-name="gid237" horiz-adv-x="1229" d="M621,986q166,0 290-64t193-179t69-267q0-141-72-255.5T902,39.5T607-27Q441-27 317,38T124,218T55,483q0,144 72,258T326.5,920.5T621,986Zm73-881q45,10 70.5,56T791,293.5T765,509q-25,126-60,206T626.5,829.5T535,854q-46-9-71-55.5t-26-132T463,450q25-125 60.5-205T602,130.5T694,105Zm55,949q-45,0-83.5,19.5t-71.5,45t-62.5,45T474,1183q-31,0-48-24t-27-74q-13-35-50-35q-51,0-51,67q0,135 49,205t132,70q47,0 85-19t71-44.5t62-44.5t58-19q32,0 48.5,24t25.5,73q13,34 51,34q51,0 51-66q0-135-49.5-205.5T749,1054Z"/>
      <glyph unicode="&#xf6;" glyph-name="gid238" horiz-adv-x="1229" d="M621,986q166,0 290-64t193-179t69-267q0-141-72-255.5T902,39.5T607-27Q441-27 317,38T124,218T55,483q0,144 72,258T326.5,920.5T621,986Zm73-881q45,10 70.5,56T791,293.5T765,509q-25,126-60,206T626.5,829.5T535,854q-46-9-71-55.5t-26-132T463,450q25-125 60.5-205T602,130.5T694,105ZM388,1047q-82,0-131,45t-49,121q0,79 49,124t131,45q84,0 132-45t48-124q0-75-48-120.5T388,1047Zm452,0q-82,0-131.5,45T659,1213q0,78 49.5,123.5T840,1382q85,0 133.5-45t48.5-124q0-75-48.5-120.5T840,1047Z"/>
      <glyph unicode="&#xf7;" glyph-name="gid122" horiz-adv-x="1136" d="M570,966q-37,0-67,17t-48,46t-18,63t18,62t48,45.5t67,17.5q39,0 69-17.5t47.5-45.5t17.5-62t-17.5-63T639,983t-69-17ZM116,682q0,34 20.5,53.5T184,755H968q27,0 46.5-19.5T1034,682t-19.5-53T968,610H183q-26,0-46.5,19T116,682ZM570,161q-37,0-67,17t-48,46t-18,63t18,62t48,45.5T570,412q39,0 69-17.5T686.5,349T704,287t-17.5-63T639,178t-69-17Z"/>
      <glyph unicode="&#xf8;" glyph-name="gid209" horiz-adv-x="1212" d="M222-78q-17,8-22.5,24.5T205-22L385,252l24,12L763,772l1,19l161,241q11,15 27,19.5t34-4.5q18-10 24-24.5t-4-29.5L826,725l-16-3L463,224l-4-23L284-62q-23-34-62-16ZM621,986q166,0 290-64t193-179t69-267q0-141-72-255.5T902,39.5T607-27Q441-27 317,38T124,218T55,483q0,144 72,258T326.5,920.5T621,986Zm73-881q45,10 70.5,56T791,293.5T765,509q-25,126-60,206T626.5,829.5T535,854q-46-9-71-55.5t-26-132T463,450q25-125 60.5-205T602,130.5T694,105Z"/>
      <glyph unicode="&#xf9;" glyph-name="gid240" horiz-adv-x="1322" d="M792,186v25l-13,1V695q0,30-8.5,42.5T745,755l-30,6q-20,6-29,18t-9,30q0,22 12,34.5T734,869l217,82q46,18 75,26t56,8q41,0 62.5-23t21.5-59V195q0-38 6.5-53.5T1195,119l26-10q22-9 31.5-22.5T1262,54q0-25-16.5-39.5T1193,0H956Q890,0 841,54.5T792,186ZM138,287V695q0,30-8.5,42.5T105,755l-30,6q-20,6-29,18t-9,30q0,22 12,34.5T94,869l216,82q49,19 77.5,26.5T438,985q44,0 65.5-23T525,903V342q0-70 32.5-105T648,202q35,0 74.5,15T796,262l37,32l55-58l-32-30Q719,76 617.5,24.5T431-27Q300-27 219,59.5T138,287ZM697,1325l78-199q10-18 12.5-35T776,1060q-13-12-34.5-12.5T701,1055L522,1164q-68,36-104.5,75T374,1335q-8,51 25,97.5t99,53.5q73,10 119.5-35T697,1325Z"/>
      <glyph unicode="&#xfa;" glyph-name="gid239" horiz-adv-x="1322" d="M792,186v25l-13,1V695q0,30-8.5,42.5T745,755l-30,6q-20,6-29,18t-9,30q0,22 12,34.5T734,869l217,82q46,18 75,26t56,8q41,0 62.5-23t21.5-59V195q0-38 6.5-53.5T1195,119l26-10q22-9 31.5-22.5T1262,54q0-25-16.5-39.5T1193,0H956Q890,0 841,54.5T792,186ZM138,287V695q0,30-8.5,42.5T105,755l-30,6q-20,6-29,18t-9,30q0,22 12,34.5T94,869l216,82q49,19 77.5,26.5T438,985q44,0 65.5-23T525,903V342q0-70 32.5-105T648,202q35,0 74.5,15T796,262l37,32l55-58l-32-30Q719,76 617.5,24.5T431-27Q300-27 219,59.5T138,287ZM662,1325q33,81 79.5,126T861,1486q66-7 98.5-53.5T985,1335q-7-57-43.5-96T836,1164L659,1055q-20-8-41-7.5T584,1060q-15,14-12,31t13,35l77,199Z"/>
      <glyph unicode="&#xfb;" glyph-name="gid241" horiz-adv-x="1322" d="M792,186v25l-13,1V695q0,30-8.5,42.5T745,755l-30,6q-20,6-29,18t-9,30q0,22 12,34.5T734,869l217,82q46,18 75,26t56,8q41,0 62.5-23t21.5-59V195q0-38 6.5-53.5T1195,119l26-10q22-9 31.5-22.5T1262,54q0-25-16.5-39.5T1193,0H956Q890,0 841,54.5T792,186ZM138,287V695q0,30-8.5,42.5T105,755l-30,6q-20,6-29,18t-9,30q0,22 12,34.5T94,869l216,82q49,19 77.5,26.5T438,985q44,0 65.5-23T525,903V342q0-70 32.5-105T648,202q35,0 74.5,15T796,262l37,32l55-58l-32-30Q719,76 617.5,24.5T431-27Q300-27 219,59.5T138,287Zm602,993H563l318-222q26-18 51.5-17.5T973,1053q14,12 14.5,32T967,1130L769,1387q-27,32-53,49t-64,17t-64.5-17T533,1387L336,1130q-21-25-20.5-45t13.5-32q17-12 42-12.5t52,17.5l317,222Z"/>
      <glyph unicode="&#xfc;" glyph-name="gid242" horiz-adv-x="1322" d="M792,186v25l-13,1V695q0,30-8.5,42.5T745,755l-30,6q-20,6-29,18t-9,30q0,22 12,34.5T734,869l217,82q46,18 75,26t56,8q41,0 62.5-23t21.5-59V195q0-38 6.5-53.5T1195,119l26-10q22-9 31.5-22.5T1262,54q0-25-16.5-39.5T1193,0H956Q890,0 841,54.5T792,186ZM138,287V695q0,30-8.5,42.5T105,755l-30,6q-20,6-29,18t-9,30q0,22 12,34.5T94,869l216,82q49,19 77.5,26.5T438,985q44,0 65.5-23T525,903V342q0-70 32.5-105T648,202q35,0 74.5,15T796,262l37,32l55-58l-32-30Q719,76 617.5,24.5T431-27Q300-27 219,59.5T138,287Zm286,760q-82,0-131,45t-49,121q0,79 49,124t131,45q84,0 132-45t48-124q0-75-48-120.5T424,1047Zm452,0q-82,0-131.5,45T695,1213q0,78 49.5,123.5T876,1382q85,0 133.5-45t48.5-124q0-75-48.5-120.5T876,1047Z"/>
      <glyph unicode="&#xfd;" glyph-name="gid243" horiz-adv-x="1191" d="M776,186L565-165L121,770q-18,37-35.5,52.5T38,850q-20,9-28.5,21.5T1,904q0,25 18,39.5T68,958H584q30,0 48-14.5T650,904q0-20-11-32.5T603,852l-30-8q-41-11-48-37.5T545,717L776,186ZM560-105l37,89l49,92L895,699q25,63 18,94.5T863,838l-35,10q-24,8-35.5,22T781,904q0,25 18,39.5T847,958h281q31,0 49-14.5t18-39.5q0-17-10-30t-33-25q-39-17-64.5-44.5T1037,714L718-64Q652-225 597.5-313T479-435T321-469q-137,0-217.5,73.5T23-212q0,79 40,124T169-43T269.5-80.5T330-181l19-45q12-34 30.5-53T419-298q20,0 38,12.5t42,54T560-105ZM697,1325q33,81 79.5,126T896,1486q66-7 98.5-53.5T1020,1335q-7-57-43.5-96T871,1164L694,1055q-20-8-41-7.5T619,1060q-15,14-12,31t13,35l77,199Z"/>
      <glyph unicode="&#xfe;" glyph-name="gid207" horiz-adv-x="1265" d="M510,1478V-283q0-37 7-52.5T540-358l28-10q19-10 29-23.5T607-423q0-25-17-39.5T541-477H101q-31,0-49,14.5T34-423q0,18 10.5,31.5T73-368l26,10q15,7 22.5,22.5T129-283V1255q0,30-9,41.5T96,1314l-30,5q-18,7-28.5,18T27,1367q0,38 58,58l253,88q39,13 62.5,18.5T450,1537q27,0 43.5-16t16.5-43ZM452,680l-51,56q78,118 175.5,183T798,984q121,0 214.5-59T1159,760t53-249q0-161-64.5-281.5T971.5,42T718-25Q602-25 520,21T382,159l81,83q34-66 77.5-94T635,120q55,0 96,35.5t65,113T820,471q0,122-24,197T731,778t-94,35q-54,0-101-32T452,680Z"/>
      <glyph unicode="&#xff;" glyph-name="gid244" horiz-adv-x="1191" d="M776,186L565-165L121,770q-18,37-35.5,52.5T38,850q-20,9-28.5,21.5T1,904q0,25 18,39.5T68,958H584q30,0 48-14.5T650,904q0-20-11-32.5T603,852l-30-8q-41-11-48-37.5T545,717L776,186ZM560-105l37,89l49,92L895,699q25,63 18,94.5T863,838l-35,10q-24,8-35.5,22T781,904q0,25 18,39.5T847,958h281q31,0 49-14.5t18-39.5q0-17-10-30t-33-25q-39-17-64.5-44.5T1037,714L718-64Q652-225 597.5-313T479-435T321-469q-137,0-217.5,73.5T23-212q0,79 40,124T169-43T269.5-80.5T330-181l19-45q12-34 30.5-53T419-298q20,0 38,12.5t42,54T560-105ZM459,1047q-82,0-131,45t-49,121q0,79 49,124t131,45q84,0 132-45t48-124q0-75-48-120.5T459,1047Zm452,0q-82,0-131.5,45T730,1213q0,78 49.5,123.5T911,1382q85,0 133.5-45t48.5-124q0-75-48.5-120.5T911,1047Z"/>
      <glyph unicode="&#x2013;" glyph-name="gid93" horiz-adv-x="1123" d="M53,543q0,38 16.5,59T120,623h883q35,0 51-21t16-59q0-37-16-59.5T1003,461H120q-34,0-50.5,22.5T53,543Z"/>
      <glyph unicode="&#x2014;" glyph-name="gid94" horiz-adv-x="1757" d="M53,543q0,38 16.5,59T120,623H1636q35,0 51-21t16-59t-16-60t-51-22H120q-34,0-50.5,22T53,543Z"/>
      <glyph unicode="&#x2018;" glyph-name="gid72" horiz-adv-x="551" d="M286,1192q103,0 156-47t53-127q0-89-65-144.5T275,818q-107,0-174.5,69.5T33,1091q0,118 42,212.5t119,158T374,1551q42,11 65.5,3t29.5-32q6-21-7.5-40.5T408,1447q-70-24-115.5-61t-68-77.5T202,1233q0-19 11-30t39-11h34Z"/>
      <glyph unicode="&#x2019;" glyph-name="gid73" horiz-adv-x="549" d="M253,1175q-103,0-156,47.5T44,1350q0,88 65,144t155,56q106,0 174-69.5T506,1276q0-118-42-212.5t-118.5-158T165,816q-42-10-65-2T70,845q-6,21 7.5,40.5T131,920q70,25 115.5,62t67.5,77.5t22,75.5q0,18-10.5,29T287,1175H253Z"/>
      <glyph unicode="&#x201a;" glyph-name="gid75" horiz-adv-x="559" d="M268,2Q165,2 112,49T59,176q0,89 65,144.5T280,376q106,0 174-69.5T522,103q0-118-42.5-212.5t-119-158T181-357q-43-11-66-2.5T85-328q-6,21 8,40.5T147-253q69,24 115,61t68,78t22,75q0,19-11,30T302,2H268Z"/>
      <glyph unicode="&#x201c;" glyph-name="gid70" horiz-adv-x="1095" d="M286,1193q103,0 156-47t53-127q0-89-65-144.5T275,819q-107,0-174.5,69.5T33,1092q0,118 42,212.5t119,158T374,1552q42,11 65.5,3t29.5-32q6-21-7.5-40.5T408,1448q-70-24-115.5-61t-68-77.5T202,1233q0-18 11-29t39-11h34Zm544,0q103,0 156-47t53-127q0-89-65-144.5T818,819q-106,0-173.5,69.5T577,1092q0,118 42,212.5t119,158T918,1552q42,11 65.5,3t29.5-32q6-21-7.5-40.5T951,1448q-69-24-114.5-61t-68-77.5T746,1233q0-18 11-29t39-11h34Z"/>
      <glyph unicode="&#x201d;" glyph-name="gid71" horiz-adv-x="1101" d="M808,1176q-103,0-155.5,47T600,1350q0,89 64.5,144.5T820,1550q106,0 174-69.5t68-203.5q0-118-42.5-212.5t-119-158T721,817q-42-11-65-2.5T626,846q-7,21 7,40.5T687,920q69,25 115,62t68,78t22,75q0,19-11,30t-39,11H808Zm-543,0q-103,0-156,47T56,1350q0,89 64.5,144.5T276,1550q106,0 174-69.5T518,1277q0-119-42-213T357,906.5T177,817q-42-11-65-2.5T82,845q-6,22 7.5,41T143,920q70,25 115.5,62t67.5,78t22,75q0,19-10.5,30T299,1176H265Z"/>
      <glyph unicode="&#x201e;" glyph-name="gid76" horiz-adv-x="1107" d="M812-3Q709-3 656,44.5T603,172q0,88 65,144t155,56q107,0 174.5-69.5T1065,99q0-119-42-213.5t-118.5-158T724-362q-42-10-65-1.5T629-333q-6,21 8,40.5T691-258q69,25 114.5,62t68,77.5T896-43q0,18-11,29T846-3H812ZM268-3Q165-3 112,44.5T59,172q0,88 65,144t156,56q106,0 174-69.5T522,99q0-119-42.5-213.5t-119-158T181-362q-43-10-66-2T85-333q-6,21 8,40.5T147-258q69,25 115,62t68,77.5T352-43q0,18-11,29T302-3H268Z"/>
      <glyph unicode="&#x2022;" glyph-name="gid97" horiz-adv-x="937" d="M467,173q-92,0-167.5,47.5T179.5,346T135,515q0,93 44.5,169.5t120,123T467,854q96,0 171.5-46.5t119-123T801,515q0-91-43.5-169t-119-125.5T467,173Z"/>
      <glyph unicode="&#x2039;" glyph-name="gid79" horiz-adv-x="727" d="M83,490q0,28 18.5,59T157,609q56,45 112,89.5t108.5,86t98,76.5T554,921q23,17 40,19.5t30-8.5q13-10 11-27.5T621,863q-27-49-62.5-109.5T477,615.5T369,437V543q61-99 107.5-176.5t82-138T621,117q12-23 14-41T624,48t-30-8T554,60q-33,25-78.5,60t-98,76T269,282T157,371q-37,30-55.5,61T83,490Z"/>
      <glyph unicode="&#x203a;" glyph-name="gid80" horiz-adv-x="727" d="M644,492q0-28-18.5-59T570,373q-56-45-112-89.5t-108.5-86t-98-76.5T173,61q-23-17-40-19.5T103,50Q90,60 92,77.5T106,119q27,49 62.5,109.5t81.5,138T358,545V439q-61,99-107.5,176.5t-82,138T106,865q-12,23-14,41t11,28t30,8t40-20q33-25 78.5-60t98-76T458,700t112-89q37-30 55.5-61T644,492Z"/>
    </font>
</defs>
</svg>
